<svg xmlns="http://www.w3.org/2000/svg" width="146.743" height="122.005" viewBox="0 0 146.743 122.005">
  <g id="Grupo_13" data-name="Grupo 13" transform="translate(-1077.622 -1346.657)">
    <path id="Caminho_50" data-name="Caminho 50" d="M910.155,557.86l5.4-.613a17.548,17.548,0,0,0,1.507-8.306c-2.937,4.141-9.151,4.075-13.28,7.029a10.554,10.554,0,0,0-4.336,8.054l-1.784,3.419a17.684,17.684,0,0,0,14.042-4.7,17.069,17.069,0,0,0,2.7-3.331C912.276,558.77,910.155,557.86,910.155,557.86Z" transform="translate(299.77 873.22)" fill="#f5bb80"/>
    <path id="Caminho_51" data-name="Caminho 51" d="M908.6,510.347l4.563-2.958a17.544,17.544,0,0,0-2.356-8.107c-.782,5.016-6.373,7.728-8.751,12.214a10.553,10.553,0,0,0-.289,9.143l-.072,3.856a17.685,17.685,0,0,0,10.472-10.468,17.084,17.084,0,0,0,.927-4.184C910.908,510.214,908.6,510.347,908.6,510.347Z" transform="translate(297.207 912.953)" fill="#f5bb80"/>
    <circle id="Elipse_6" data-name="Elipse 6" cx="16.373" cy="16.373" r="16.373" transform="translate(1169.629 1426.754)" fill="#f6f6f6"/>
    <path id="Caminho_52" data-name="Caminho 52" d="M774.137,604.059a16.573,16.573,0,1,1,16.573-16.573A16.573,16.573,0,0,1,774.137,604.059Zm0-32.747a16.174,16.174,0,1,0,16.174,16.174A16.173,16.173,0,0,0,774.137,571.312Z" transform="translate(411.865 855.641)" fill="#3f3d56"/>
    <path id="Caminho_53" data-name="Caminho 53" d="M814.807,632.639l-.1,0a2.141,2.141,0,0,1-1.587-.825l-2.736-3.518a2.142,2.142,0,0,1,.375-3.006l.1-.077a2.142,2.142,0,0,1,3.007.376,1.562,1.562,0,0,0,2.366.115l5.556-5.865a2.145,2.145,0,0,1,3.029-.082l.091.087a2.142,2.142,0,0,1,.082,3.029l-8.622,9.1A2.139,2.139,0,0,1,814.807,632.639Z" transform="translate(369.969 817.032)" fill="#e42925"/>
    <path id="Caminho_54" data-name="Caminho 54" d="M612.3,604.307l-2.271.253-2.151-8.81,3.351-.373Z" transform="translate(565.132 859.744)" fill="#a0616a"/>
    <path id="Caminho_55" data-name="Caminho 55" d="M775.2,543.435c-.071-.07-.147-.139-.223-.2a20.733,20.733,0,0,0-1.834-1.358c-.719-.479-1.529-.969-2.445-1.474q-.665-.367-1.405-.75-.371-.192-.763-.386l-.034-.018-.076-.038-5.511,4.549-.391.308,1.015,1.252s-.088,1-.086,1l-1.008,2.515-.011.005-3.59,1.639-3.7,1.689-1.987.908a3.818,3.818,0,0,0-2,2.165,3.969,3.969,0,0,0,.131,3.065c.044.1.094.195.147.288l.826,5.192a31.245,31.245,0,0,0,2.845,8.938l1.261,4.86.192-.1,2.852-1.429.754-.377.142-3.265c.016-.372.018-.746.005-1.12a14.394,14.394,0,0,0-.175-1.824L758.5,559.279q.435-.177.859-.357,1.963-.822,3.717-1.661a47.519,47.519,0,0,0,9.433-5.749q1.067-.86,2-1.76.344-.329.669-.664c.052-.052.1-.1.151-.155a3.863,3.863,0,0,0,.959-3.573A3.941,3.941,0,0,0,775.2,543.435Z" transform="translate(417.193 881.009)" fill="#2f2e41"/>
    <path id="Caminho_56" data-name="Caminho 56" d="M773.769,750.518l-2.458.272-.386.042.251,1.46-2.857,2.791a.925.925,0,0,0,.8,1.575l4.057-.695.451-1.564.521,1.4,1.528-.262-1.312-5.082Z" transform="translate(403.482 711.991)" fill="#2f2e41"/>
    <path id="Caminho_57" data-name="Caminho 57" d="M789.49,448.253l2.1-2.232-2.969-6.5-.442-2.282a1.725,1.725,0,0,0-2.817-.982h0a1.725,1.725,0,0,0-.224,2.388l1.639,2.049Z" transform="translate(390.102 963.709)" fill="#a0616a"/>
    <path id="Caminho_58" data-name="Caminho 58" d="M809.33,453.463l-2.4,2.4.459,3.507a2.79,2.79,0,0,0,2.011,1.865h0a2.789,2.789,0,0,0,3.038-1.278l5.4-9.248a2.847,2.847,0,0,0-.918-3.87h0a2.847,2.847,0,0,0-4.078,1.149L809.545,455Z" transform="translate(372.366 955.267)" fill="#e6e6e6"/>
    <path id="Caminho_59" data-name="Caminho 59" d="M779.478,629.037c-.124.126-.248.251-.374.376-.25.25-.5.5-.758.742-.128.122-.257.245-.386.366v0l-.008,0,0,0-.213.11-.531-.782-.245-.36-.346-.51-.634-.933-3.339-4.915,2.995-1.546.236.459h0l.117.227,2.19,4.243.447.868.014.026.269.518.232.449.258.5Z" transform="translate(399.801 815.091)" fill="#a0616a"/>
    <path id="Caminho_60" data-name="Caminho 60" d="M792.052,649.564l-2.084,1.331-.327.208.871,1.2-1.328,3.766a.925.925,0,0,0,1.416,1.057l3.331-2.417-.287-1.6,1.085,1.023,1.255-.91-3.424-3.977Z" transform="translate(386.609 792.971)" fill="#2f2e41"/>
    <path id="Caminho_61" data-name="Caminho 61" d="M420.007,242.565l1.6-5.2a17.545,17.545,0,0,0-7.013-4.7c2.624,4.346.081,10.016,1.141,14.982a10.553,10.553,0,0,0,5.653,7.192l2.422,3a17.684,17.684,0,0,0,1.3-14.75,17.078,17.078,0,0,0-1.978-3.8C421.688,240.983,420.007,242.565,420.007,242.565Z" transform="translate(712.401 1136.822)" fill="#f5bb80"/>
    <path id="Caminho_62" data-name="Caminho 62" d="M360.711,259.252l-.89-5.365a17.546,17.546,0,0,0-8.373-1.078c4.287,2.72,4.54,8.929,7.7,12.9a10.553,10.553,0,0,0,8.267,3.916l3.506,1.606a17.684,17.684,0,0,0-5.415-13.781,17.084,17.084,0,0,0-3.466-2.52C361.51,257.087,360.711,259.252,360.711,259.252Z" transform="translate(762.92 1120.799)" fill="#f5bb80"/>
    <path id="Caminho_63" data-name="Caminho 63" d="M536.521,187.265l1.639-2.049a1.725,1.725,0,0,0-.224-2.388h0a1.725,1.725,0,0,0-2.817.982l-.442,2.282L533,190.616l2.011,1.005Z" transform="translate(617.659 1177.031)" fill="#ffb8b8"/>
    <path id="Caminho_64" data-name="Caminho 64" d="M490.651,201.572l-3.293-7.017a2.847,2.847,0,0,0-4.078-1.149h0a2.847,2.847,0,0,0-.918,3.87l5.4,9.248a2.789,2.789,0,0,0,3.038,1.278h0a2.789,2.789,0,0,0,2.011-1.865l2.035-6.376-2.681-1.341Z" transform="translate(658.502 1168.59)" fill="#2f2e41"/>
    <path id="Caminho_65" data-name="Caminho 65" d="M543.205,174.139l-2.157-.181a1.283,1.283,0,0,1-1.17-1.385l.83-9.9a1.283,1.283,0,0,1,1.385-1.17l2.157.181a1.283,1.283,0,0,1,1.17,1.385l-.83,9.9A1.283,1.283,0,0,1,543.205,174.139Z" transform="translate(612.162 1193.765)" fill="#3f3d56"/>
    <path id="Caminho_66" data-name="Caminho 66" d="M543.182,163.931a.691.691,0,0,0-.746.631l-.83,9.9a.692.692,0,0,0,.631.746l2.157.181a.692.692,0,0,0,.746-.631l.83-9.9a.692.692,0,0,0-.631-.746Z" transform="translate(610.778 1191.82)" fill="#e42925"/>
    <rect id="Retângulo_7" data-name="Retângulo 7" width="8.976" height="8.976" transform="translate(1140.569 1376.813)" fill="#ffb8b8"/>
    <circle id="Elipse_7" data-name="Elipse 7" cx="0.481" cy="0.481" r="0.481" transform="translate(1150.81 1375.084)" fill="#2f2e41"/>
    <path id="Caminho_67" data-name="Caminho 67" d="M408.611,303.569h2.394l1.139-9.234h-3.533Z" transform="translate(750.692 1111.159)" fill="#ffb6b6"/>
    <path id="Caminho_68" data-name="Caminho 68" d="M571.352,452.161l3.784-.226v1.621l3.6,2.485a1.013,1.013,0,0,1-.576,1.846h-4.505l-.777-1.6-.3,1.6h-1.7Z" transform="translate(587.357 961.386)" fill="#2f2e41"/>
    <path id="Caminho_69" data-name="Caminho 69" d="M319.732,341.816l2.053,1.232,5.729-7.331-3.029-1.818Z" transform="translate(821.804 1079.505)" fill="#ffb6b6"/>
    <path id="Caminho_70" data-name="Caminho 70" d="M474.411,485.355l3.361,1.754-.834,1.39,1.806,3.982a1.013,1.013,0,0,1-1.444,1.287l-3.863-2.319.16-1.775-1.085,1.219-1.457-.874Z" transform="translate(667.224 934.647)" fill="#2f2e41"/>
    <path id="Caminho_71" data-name="Caminho 71" d="M183.395,356.875h-.071a1.729,1.729,0,0,1-1.39-.791,19.533,19.533,0,0,0-4.112-4.454c-.965-.771-1.973-1.488-2.948-2.182-2.516-1.789-4.885-3.473-6.2-5.8-2.867-5.076.509-12.145,5.333-15.316,5.41-3.556,12.527-4.114,19.412-4.187q1.073-.011,2.148-.011h0a204.779,204.779,0,0,1,36.982,3.382c4.057.748,8.3,1.665,11.715,3.89,3.392,2.212,5.454,5.7,5.253,8.874-.294,4.641-5.213,8.109-9.693,9.015-4.27.863-8.706.28-13.4-.338-1.037-.136-2.109-.277-3.169-.4-11.52-1.332-33.162,2.773-34.077,2.948l-.908.174-3.525,4.536A1.692,1.692,0,0,1,183.395,356.875Z" transform="translate(910.003 1063.642)" fill="#e42925"/>
    <path id="Caminho_72" data-name="Caminho 72" d="M304.041,366.192H255.348a1.059,1.059,0,1,1,0-2.119h48.692a1.059,1.059,0,0,1,0,2.119Z" transform="translate(840.658 1031.685)" fill="#fff"/>
    <path id="Caminho_73" data-name="Caminho 73" d="M304.036,398.723H255.344a1.059,1.059,0,1,1,0-2.119h48.694a1.059,1.059,0,1,1,0,2.119Z" transform="translate(840.662 1005.656)" fill="#fff"/>
    <path id="Caminho_74" data-name="Caminho 74" d="M261.023,431.253h-5.674a1.059,1.059,0,1,1,0-2.119h5.674a1.059,1.059,0,0,1,0,2.119Z" transform="translate(840.658 979.629)" fill="#fff"/>
    <path id="Caminho_75" data-name="Caminho 75" d="M477.265,296.766l-9.6-1.145.276,1.82s-6.5,5.236-2.05,11.014l2.148,2.095-.2.984h1.379l.148,1.188,5.933,4.911.341,1h.977l-.477,1.142-4.4,10.245,3.649,1.7,6.721-12.885-1.722-3.883-6.193-7.839,9.593,3.789.164.832.882-.167-.17,1.224,1.872,9.631,3.965-.526-.408-11.984a3.716,3.716,0,0,0-2.025-3.137c-2.032-1.044-9.54-3.945-9.54-3.945Z" transform="translate(672.598 1086.453)" fill="#2f2e41"/>
    <path id="Caminho_76" data-name="Caminho 76" d="M476.668,186.591l-1.807-2.322-2.577-.112-.257,2.184-1.277.589a34.248,34.248,0,0,0-.577,14.838h0a1.321,1.321,0,0,1,.376,1.283l-.083.33.008.012a1.933,1.933,0,0,1,.257,1.443h0l-2.334,4.148c4.958,2.021,8.592-1.748,11.959-6.686l2.084-7.213Z" transform="translate(669.351 1175.636)" fill="#3f3d56"/>
    <path id="Caminho_77" data-name="Caminho 77" d="M344.36,86.942l.487-4.866-6.46-9.562-.266.179,6.395,9.467-.475,4.751Z" transform="translate(807.091 1288.639)" fill="#2f2e41"/>
    <circle id="Elipse_8" data-name="Elipse 8" cx="4.765" cy="4.765" r="4.765" transform="translate(1139.573 1350.184)" fill="#ffb8b8"/>
    <path id="Caminho_78" data-name="Caminho 78" d="M474.445,130.843l-.6.019-.2.006-2.276.072a3.9,3.9,0,0,0-3.522,4.225c-1.473,1.576-.956,3.477.317,5.5a23.92,23.92,0,0,1,6.388,1.493l.248-1.235.618,1.6q.767.342,1.524.753a20.28,20.28,0,0,1-.658-7.516l1.042-.033-.036-1.14.39,1.129,1.889-.06h0A4.969,4.969,0,0,0,474.445,130.843Z" transform="translate(670.506 1218.295)" fill="#2f2e41"/>
    <circle id="Elipse_9" data-name="Elipse 9" cx="2.244" cy="2.244" r="2.244" transform="translate(1138.593 1346.657)" fill="#2f2e41"/>
    <path id="Caminho_79" data-name="Caminho 79" d="M543.521,199.265l1.639-2.049a1.725,1.725,0,0,0-.224-2.388h0a1.725,1.725,0,0,0-2.817.982l-.442,2.282L540,202.616l2.011,1.006Z" transform="translate(612.059 1167.43)" fill="#ffb8b8"/>
    <path id="Caminho_80" data-name="Caminho 80" d="M497.651,213.572l-3.293-7.017a2.847,2.847,0,0,0-4.078-1.149h0a2.847,2.847,0,0,0-.918,3.87l5.4,9.248a2.789,2.789,0,0,0,3.038,1.278h0a2.789,2.789,0,0,0,2.011-1.865l2.035-6.376-2.681-1.341Z" transform="translate(652.901 1158.989)" fill="#2f2e41"/>
    <path id="Caminho_81" data-name="Caminho 81" d="M770.22,540.9c-.207.333-.419.665-.633.993q-.6.918-1.222,1.808s0,0,0,0a4.283,4.283,0,0,1-.8.586c-.012.009-.026.015-.038.023a2.957,2.957,0,0,1-.675.271l-.256.064c-.306.073-.609.135-.91.189q-.8.143-1.593.206c-.042,0-.085.008-.127.011a24.637,24.637,0,0,1-6.477-.516c-1.087-.206-2.2-.453-3.346-.709-.375-.085-.752-.168-1.134-.251l-.089-.02c-.545-.12-1.1-.238-1.667-.354-.714-.147-.348-.155-1.114-.29a13.677,13.677,0,0,1,2.061,2.573,4.189,4.189,0,0,1,.039,3.29l1.7,3.332-5.9,1c-3.252-6.373-5.852-10.569-4.69-13.041,0-.115.014-.232.029-.347a3.966,3.966,0,0,1,1.51-2.671,3.82,3.82,0,0,1,2.845-.778l1.158.15,8.983-.436.353-1.438.065-.024,2.07-.759,7.158-2.624.018-.006.471-.173.056.091c.017.027.033.054.049.082a14.031,14.031,0,0,1,1.131,2.625,41.224,41.224,0,0,1,1.189,4.538q.02.1.036.182l0,.017c0,.026.007.042.009.047A4.233,4.233,0,0,1,770.22,540.9Z" transform="translate(423.471 887.608)" fill="#2f2e41"/>
    <line id="Linha_1" data-name="Linha 1" x1="0.142" transform="translate(1174.719 1446.248)" fill="#2f2e41"/>
    <path id="Caminho_82" data-name="Caminho 82" d="M824.8,427.121l-.052-2.869-4.546-.529-.477,2.423-4.778,4.49c-3.4,4.153-.929,7.017-.781,7.443l.42,5.237.264,1.82-1.032,4.979,13.024,2.794c.417-3.443-.047-6.641-2.766-9.216l1.374-4.275h0a8.781,8.781,0,0,0,1.278-3.682l.049-.447C828,431.5,827.276,430.231,824.8,427.121Z" transform="translate(367.378 973.408)" fill="#e6e6e6"/>
    <path id="Caminho_83" data-name="Caminho 83" d="M857.236,371.938c0,.074,0,.148,0,.221a5.082,5.082,0,0,1-6.659,4.824l-.934-.3-.024-.008-1.54-.5a1.044,1.044,0,0,1,0-.2c-2.3-.981.878-4.2,1.667-6.625.123-.377-4.094-.1-3.894-.418-.044-.023-.088-.045-.129-.068a6.24,6.24,0,0,1,6.892-2.686c.033.008.068.018.1.027,2.992.074,4.563,2.159,4.563,4.866A7.449,7.449,0,0,1,857.236,371.938Z" transform="translate(341.322 1019.623)" fill="#2f2e41"/>
    <path id="Caminho_84" data-name="Caminho 84" d="M852.244,375.621a4.878,4.878,0,0,1-6.148,3.123q-.209-.068-.409-.154a4.876,4.876,0,0,1-2.715-5.993,4.821,4.821,0,0,1,.487-1.051,4.876,4.876,0,0,1,8.784,4.074Z" transform="translate(343.723 1017.006)" fill="#a0616a"/>
    <path id="Caminho_85" data-name="Caminho 85" d="M844.9,373.528l-.024-.008-1.539-.5c0-.066-2.831,1.805-2.823,1.739.044-.506,3.228-2.972,3.7-3.546a2.95,2.95,0,0,0-1.3-4.686.235.235,0,0,1-.04-.014c-.3-.1-.584-.21-.852-.316-.132-.55-.2-.368-.518-.834.058.424-.48.744-.488,1.171-.11-.05-.214-.1-.314-.154l-.128-.068a2.122,2.122,0,0,1-.786-.628c.77-2.365,3.714-4.258,6.079-3.484l.894.29a4.485,4.485,0,0,1,2.6,2.217,5.049,5.049,0,0,1,1.515,1.9A4.974,4.974,0,0,1,844.9,373.528Z" transform="translate(346.067 1022.773)" fill="#2f2e41"/>
    <circle id="Elipse_10" data-name="Elipse 10" cx="2.12" cy="2.12" r="2.12" transform="translate(1195.316 1385.489)" fill="#2f2e41"/>
    <path id="Caminho_86" data-name="Caminho 86" d="M927.1,358.231a14.057,14.057,0,0,1-7.42,9.541c-.238.118-.48.228-.724.33a4.8,4.8,0,0,0-.814-2.781,8.728,8.728,0,0,1-.158,3.144,14.089,14.089,0,0,1-4.866.7,4.729,4.729,0,0,0-.774-2.047,8.531,8.531,0,0,1,.032,2.007,13.775,13.775,0,0,1-4.784-1.281,5.163,5.163,0,0,1-2.053-1.541,4.585,4.585,0,0,1-.618-3.314,31.979,31.979,0,0,1,.86-3.346,6.366,6.366,0,0,0,.112-3.41,2.95,2.95,0,0,0-2.421-2.171c-.524-.04-1.05.1-1.573.056s-1.092-.4-1.1-.926l.5-.816a4.906,4.906,0,0,1,2.187-3.568,3.122,3.122,0,0,1,3.926.564c.75.956.722,2.283.968,3.472A9.171,9.171,0,0,0,913.729,359a19.136,19.136,0,0,0,8.282,1.367,9.632,9.632,0,0,0,2.871-.376A3.785,3.785,0,0,0,927.1,358.231Z" transform="translate(297.262 1033.7)" fill="#2f2e41"/>
    <path id="Caminho_87" data-name="Caminho 87" d="M788.559,415.535l-.83-9.9a1.283,1.283,0,0,1,1.17-1.385l2.157-.181a1.283,1.283,0,0,1,1.385,1.17l.83,9.9a1.283,1.283,0,0,1-1.17,1.385l-2.158.181A1.283,1.283,0,0,1,788.559,415.535Z" transform="translate(387.734 989.136)" fill="#3f3d56"/>
    <path id="Caminho_88" data-name="Caminho 88" d="M792.542,406.679a.692.692,0,0,0-.631.746l.83,9.9a.692.692,0,0,0,.746.631l2.157-.181a.692.692,0,0,0,.631-.746l-.83-9.9a.692.692,0,0,0-.746-.631Z" transform="translate(384.385 987.191)" fill="#e42925"/>
    <path id="Caminho_89" data-name="Caminho 89" d="M802.16,441.007l2.1-.8-1.22-4.668-.214-2.314a1.725,1.725,0,0,0-2.706-1.256h0a1.725,1.725,0,0,0-.459,2.354l1.429,2.2Z" transform="translate(378.405 967.06)" fill="#a0616a"/>
    <path id="Caminho_90" data-name="Caminho 90" d="M812.986,452.171l-2.8,1.069,1.394,6.546a2.789,2.789,0,0,0,1.817,2.055h0a2.789,2.789,0,0,0,3.149-.971l6.284-8.669a2.847,2.847,0,0,0-.531-3.942h0a2.847,2.847,0,0,0-4.172.74l-3.971,6.657Z" transform="translate(369.762 954.261)" fill="#e6e6e6"/>
    <path id="Caminho_91" data-name="Caminho 91" d="M812.8,481.369l1.416,5.749.294.357a2.289,2.289,0,0,0,3.729-.273l4.486-7.46-4.045,5.6a2.288,2.288,0,0,1-3.868-.251Z" transform="translate(367.67 928.586)" opacity="0.2"/>
  </g>
</svg>
