<svg id="Grupo_8" data-name="Grupo 8" xmlns="http://www.w3.org/2000/svg" width="101.956" height="109.704" viewBox="0 0 101.956 109.704">
  <path id="Caminho_257" data-name="Caminho 257" d="M375.677,201.28,331.6,212.629a5.828,5.828,0,0,1-7.089-4.186l-13.328-51.759a5.828,5.828,0,0,1,4.185-7.089l41-10.558,10.494,4.7,12.993,50.456A5.828,5.828,0,0,1,375.677,201.28Z" transform="translate(-311.004 -139.037)" fill="#2f2e41"/>
  <path id="Caminho_258" data-name="Caminho 258" d="M323.615,159.478a4.15,4.15,0,0,0-2.981,5.048l13.329,51.759a4.15,4.15,0,0,0,5.048,2.981l44.072-11.349a4.15,4.15,0,0,0,2.981-5.048l-12.792-49.674-9.223-4.129Z" transform="translate(-318.828 -147.297)" fill="#f6f6f6"/>
  <path id="Caminho_259" data-name="Caminho 259" d="M578.132,144.648l-6.821,1.756a1.939,1.939,0,0,1-2.361-1.394l-1.3-5.038a.121.121,0,0,1,.167-.141l10.331,4.588a.121.121,0,0,1-.019.228Z" transform="translate(-522.378 -139.683)" fill="#3f3d55"/>
  <path id="Caminho_260" data-name="Caminho 260" d="M507.391,408.855l-20.065,5.167a.969.969,0,1,1-.483-1.877l20.065-5.167a.969.969,0,0,1,.483,1.877Z" transform="translate(-455.226 -359.689)" fill="#ccc"/>
  <path id="Caminho_261" data-name="Caminho 261" d="M515.889,421.163l-23.938,6.164a.969.969,0,0,1-.483-1.877l23.938-6.164a.969.969,0,0,1,.483,1.878Z" transform="translate(-459.035 -369.826)" fill="#ccc"/>
  <circle id="Ellipse_44" data-name="Ellipse 44" cx="3.426" cy="3.426" r="3.426" transform="translate(20.484 53.704)" fill="#e42925"/>
  <path id="Caminho_262" data-name="Caminho 262" d="M426.646,238.077,400,244.937a3,3,0,0,1-3.652-2.157l-5.585-21.695a3,3,0,0,1,2.156-3.652l26.649-6.86a3,3,0,0,1,3.652,2.157l5.585,21.695a3,3,0,0,1-2.157,3.652Z" transform="translate(-376.615 -197.877)" fill="#2f2e41"/>
  <path id="Path_411" data-name="Path 411" d="M481.217,247.915l-13.449,3.462a.482.482,0,0,1-.584-.3.464.464,0,0,1,.327-.589l13.691-3.524c.553.28.408.853.015.954Z" transform="translate(-439.617 -227.924)" fill="#fff"/>
  <path id="Path_412" data-name="Path 412" d="M484.661,261.289l-13.449,3.462a.482.482,0,0,1-.584-.3.464.464,0,0,1,.327-.589l13.691-3.524c.553.28.408.853.015.954Z" transform="translate(-442.453 -238.939)" fill="#fff"/>
  <path id="Path_413" data-name="Path 413" d="M431.483,269.816l-4.1,1.057a.522.522,0,0,1-.636-.375l-1.247-4.844a.523.523,0,0,1,.375-.636l4.1-1.057a.523.523,0,0,1,.636.375l1.247,4.844A.522.522,0,0,1,431.483,269.816Z" transform="translate(-405.286 -241.912)" fill="#fff"/>
  <path id="Path_414" data-name="Path 414" d="M458.445,288.729l-20.526,5.284a.482.482,0,0,1-.584-.3.464.464,0,0,1,.327-.589l20.768-5.346C458.983,288.055,458.837,288.628,458.445,288.729Z" transform="translate(-415.033 -261.538)" fill="#fff"/>
  <path id="Path_415" data-name="Path 415" d="M461.889,302.107l-20.526,5.284a.482.482,0,0,1-.584-.3.464.464,0,0,1,.327-.589l20.768-5.346c.553.28.407.853.015.954Z" transform="translate(-417.87 -272.556)" fill="#fff"/>
  <path id="Path_416" data-name="Path 416" d="M465.331,315.476,444.8,320.76a.482.482,0,0,1-.584-.3.464.464,0,0,1,.327-.589l20.767-5.346c.553.28.408.853.015.954Z" transform="translate(-420.704 -283.567)" fill="#fff"/>
  <path id="Path_417" data-name="Path 417" d="M468.774,328.853l-20.526,5.284a.482.482,0,0,1-.584-.3.464.464,0,0,1,.327-.589l20.768-5.346C469.311,328.179,469.166,328.752,468.774,328.853Z" transform="translate(-423.54 -294.585)" fill="#fff"/>
  <path id="Path_418" data-name="Path 418" d="M472.216,342.223l-20.526,5.284a.482.482,0,0,1-.584-.3.464.464,0,0,1,.327-.589l20.767-5.346c.553.28.408.853.015.954Z" transform="translate(-426.375 -305.596)" fill="#fff"/>
  <path id="Path_395" data-name="Path 395" d="M441.542,456.2a.355.355,0,0,1-.225-.016l0,0-.933-.4a.358.358,0,1,1,.28-.659l.6.257.793-1.864a.358.358,0,0,1,.469-.189h0l0,.012,0-.012a.358.358,0,0,1,.189.469l-.932,2.192a.358.358,0,0,1-.241.206Z" transform="translate(-417.379 -397.868)" fill="#fff"/>
  <path id="Caminho_264" data-name="Caminho 264" d="M533.806,299.8H488.3a5.828,5.828,0,0,1-5.821-5.821V240.536a5.828,5.828,0,0,1,5.821-5.821h42.339l8.991,7.167v52.1A5.827,5.827,0,0,1,533.806,299.8Z" transform="translate(-452.228 -217.838)" fill="#3f3d56"/>
  <path id="Caminho_265" data-name="Caminho 265" d="M496.119,244.215a4.15,4.15,0,0,0-4.145,4.145v53.448a4.15,4.15,0,0,0,4.145,4.145h45.51a4.15,4.15,0,0,0,4.145-4.145V250.513l-7.9-6.3Z" transform="translate(-460.052 -225.662)" fill="#f6f6f6"/>
  <path id="Caminho_266" data-name="Caminho 266" d="M622.024,323.267H601.3a.969.969,0,1,1,0-1.939h20.72a.969.969,0,1,1,0,1.939Z" transform="translate(-549.298 -289.173)" fill="#e42925"/>
  <path id="Caminho_267" data-name="Caminho 267" d="M626.023,341.814H601.3a.969.969,0,1,1,0-1.939h24.719a.969.969,0,1,1,0,1.939Z" transform="translate(-549.298 -304.448)" fill="#e42925"/>
  <path id="Caminho_268" data-name="Caminho 268" d="M622.028,404.443H601.308a.969.969,0,0,0,0,1.939h20.719a.969.969,0,0,0,0-1.939Z" transform="translate(-549.302 -357.627)" fill="#ccc"/>
  <path id="Caminho_269" data-name="Caminho 269" d="M626.027,422.993H601.308a.969.969,0,0,0,0,1.939h24.718a.969.969,0,0,0,0-1.939Z" transform="translate(-549.302 -372.905)" fill="#ccc"/>
  <path id="Caminho_270" data-name="Caminho 270" d="M622.024,489.5H601.3a.969.969,0,1,1,0-1.939h20.72a.969.969,0,1,1,0,1.939Z" transform="translate(-549.298 -426.085)" fill="#ccc"/>
  <path id="Caminho_271" data-name="Caminho 271" d="M626.023,508.049H601.3a.969.969,0,1,1,0-1.939h24.719a.969.969,0,0,1,0,1.939Z" transform="translate(-549.298 -441.36)" fill="#ccc"/>
  <circle id="Ellipse_44-2" data-name="Ellipse 44" cx="3.426" cy="3.426" r="3.426" transform="translate(39.951 31.334)" fill="#e42925"/>
  <path id="Path_395-2" data-name="Path 395" d="M549.56,331.339a.356.356,0,0,1-.214-.071l0,0-.805-.616a.358.358,0,0,1,.435-.568l.521.4,1.232-1.608a.358.358,0,0,1,.5-.066h0l-.008.011.008-.011a.358.358,0,0,1,.066.5l-1.45,1.89a.358.358,0,0,1-.285.139Z" transform="translate(-506.522 -295.272)" fill="#fff"/>
  <path id="Caminho_272" data-name="Caminho 272" d="M546.342,403.212a3.426,3.426,0,0,1-3.426,3.427.734.734,0,0,1-.088,0,3.426,3.426,0,1,1,3.514-3.424Z" transform="translate(-499.186 -353.791)" fill="#ccc"/>
  <circle id="Ellipse_44-3" data-name="Ellipse 44" cx="3.426" cy="3.426" r="3.426" transform="translate(39.951 60.657)" fill="#ccc"/>
  <path id="Caminho_273" data-name="Caminho 273" d="M763.544,242.744H756.5a1.939,1.939,0,0,1-1.939-1.939v-5.2a.121.121,0,0,1,.2-.095l8.861,7.02a.121.121,0,0,1-.075.216Z" transform="translate(-676.321 -218.47)" fill="#29273a"/>
  <path id="Caminho_274" data-name="Caminho 274" d="M559.44,403.441a3.426,3.426,0,0,1-3.426,3.427.733.733,0,0,1-.088,0,7.417,7.417,0,0,1,.665-6.8A3.428,3.428,0,0,1,559.44,403.441Z" transform="translate(-512.285 -354.019)" fill="#e42925"/>
  <path id="Caminho_275" data-name="Caminho 275" d="M600.334,405.413a.972.972,0,0,1,.97-.97h5.163a7.333,7.333,0,0,1,.637,1.939h-5.8a.97.97,0,0,1-.97-.968Z" transform="translate(-549.298 -357.627)" fill="#e42925"/>
  <path id="Caminho_276" data-name="Caminho 276" d="M607.228,422.993a7.4,7.4,0,0,1-.258,1.939h-5.662a.969.969,0,0,1,0-1.939Z" transform="translate(-549.302 -372.905)" fill="#e42925"/>
  <path id="Caminho_277" data-name="Caminho 277" d="M645,448.086a1.058,1.058,0,0,1-1.455.352L631.2,440.906a1.058,1.058,0,1,1,1.1-1.807l12.349,7.532A1.058,1.058,0,0,1,645,448.086Z" transform="translate(-574.297 -386.042)" fill="#3f3d56"/>
  <path id="Caminho_278" data-name="Caminho 278" d="M568.522,387.945a8.467,8.467,0,1,1-2.819-11.637A8.467,8.467,0,0,1,568.522,387.945Zm-12.65-7.716a6.35,6.35,0,1,0,8.728-2.115,6.35,6.35,0,0,0-8.728,2.115Z" transform="translate(-510.169 -333.433)" fill="#3f3d56"/>
  <circle id="Elipse_36" data-name="Elipse 36" cx="4.332" cy="4.332" r="4.332" transform="translate(81.148 42.795)" fill="#a0616a"/>
  <path id="Caminho_279" data-name="Caminho 279" d="M793.581,466.046a1.941,1.941,0,0,1,1.468-2.5,1.837,1.837,0,0,1,.257-.032l4.564-7.324-4.169-3.963a1.664,1.664,0,1,1,2.315-2.391l5.755,5.675.012.014a1.507,1.507,0,0,1-.1,1.8l-6.394,7.563a1.843,1.843,0,0,1,.048.185,1.941,1.941,0,0,1-1.742,2.314q-.083.007-.164.007A1.947,1.947,0,0,1,793.581,466.046Z" transform="translate(-708.381 -394.63)" fill="#a0616a"/>
  <path id="Caminho_280" data-name="Caminho 280" d="M429.25,570.054h-2.163l-1.029-8.341h3.192Z" transform="translate(-350.905 -462.629)" fill="#a0616a"/>
  <path id="Caminho_281" data-name="Caminho 281" d="M725.719,746.837h-6.973v-.088a2.714,2.714,0,0,1,2.714-2.714h4.259Z" transform="translate(-646.823 -637.316)" fill="#2f2e41"/>
  <path id="Caminho_282" data-name="Caminho 282" d="M533.278,558.586l-1.858,1.106-5.152-6.641,2.742-1.633Z" transform="translate(-433.438 -454.152)" fill="#a0616a"/>
  <path id="Caminho_283" data-name="Caminho 283" d="M855.8,728.456l-5.991,3.567-.045-.076a2.714,2.714,0,0,1,.943-3.721h0l3.659-2.179Z" transform="translate(-754.414 -622.503)" fill="#2f2e41"/>
  <path id="Caminho_284" data-name="Caminho 284" d="M730.366,543.156c-1.449-17.058-2.31-32.906,2.985-39.37l.041-.05L742.3,507.3l.015.032c.03.065,2.994,6.585,2.3,10.971l2.2,10.112,7.168,12a.794.794,0,0,1-.362,1.134l-3.115,1.37a.8.8,0,0,1-1-.312l-7.8-12.715-4.4-9.752a.265.265,0,0,0-.5.081l-2.441,22.948a.792.792,0,0,1-.789.71h-2.422A.8.8,0,0,1,730.366,543.156Z" transform="translate(-655.484 -439.405)" fill="#2f2e41"/>
  <path id="Caminho_285" data-name="Caminho 285" d="M751.842,450.67l-.042-.02-.007-.047a15.052,15.052,0,0,1,1.171-7.7,6.11,6.11,0,0,1,7.091-3.659h0a6.1,6.1,0,0,1,3.891,2.992,6.036,6.036,0,0,1,.419,4.838c-1.4,4.092-3.215,7.921-3.233,7.96l-.038.08Z" transform="translate(-673.946 -386.153)" fill="#e42925"/>
  <path id="Caminho_286" data-name="Caminho 286" d="M694.038,453.9a1.941,1.941,0,0,1,2.852.5,1.852,1.852,0,0,1,.12.23l8.459,1.71,2.252-5.292a1.664,1.664,0,1,1,3.05,1.331l-3.3,7.379-.009.016a1.507,1.507,0,0,1-1.719.531l-9.323-3.341a1.819,1.819,0,0,1-.156.109,1.941,1.941,0,0,1-2.777-.821q-.036-.075-.064-.151A1.947,1.947,0,0,1,694.038,453.9Z" transform="translate(-625.866 -395.19)" fill="#a0616a"/>
  <path id="Caminho_287" data-name="Caminho 287" d="M786.727,382.367a3.532,3.532,0,0,0-1.829-1.69,5.953,5.953,0,0,0-3.229.274,5.983,5.983,0,0,1-2.51.149,2.819,2.819,0,0,1-2.005-1.4c-.555-1.112-.087-2.438-.121-3.68a4.469,4.469,0,0,0-5.631-4.2c-1.022-.295-1.947-.322-2.579.463a3,3,0,0,0-3,3h2.867a2.849,2.849,0,0,0,.433,2.1c.506.744,1.386,1.282,1.556,2.165a2.767,2.767,0,0,1-1.028,2.291,4.76,4.76,0,0,0-1.509,2.09,2.591,2.591,0,0,0,.371,1.864,6.067,6.067,0,0,0,1.3,1.435,19.123,19.123,0,0,0,7.944,4.064A9.444,9.444,0,0,0,784,391a6.2,6.2,0,0,0,2.728-8.637Z" transform="translate(-685.595 -330.6)" fill="#2f2e41"/>
  <path id="Caminho_288" data-name="Caminho 288" d="M730.692,759.316H697.177a.176.176,0,0,1,0-.353h33.515a.176.176,0,1,1,0,.353Z" transform="translate(-628.913 -649.611)" fill="#ccc"/>
</svg>
