<svg xmlns="http://www.w3.org/2000/svg" width="153.328" height="110.248" viewBox="0 0 153.328 110.248">
  <g id="Grupo_14" data-name="Grupo 14" transform="translate(-502 -1451.94)">
    <path id="Caminho_176" data-name="Caminho 176" d="M879.564,373.343l.491-3.934a5.312,5.312,0,0,1,10.542,1.315l-.491,3.934a.715.715,0,0,1-.8.62l-9.126-1.139A.714.714,0,0,1,879.564,373.343Z" transform="translate(-245.863 1127.61)" fill="#2f2e41"/>
    <circle id="Elipse_23" data-name="Elipse 23" cx="3.894" cy="3.894" r="3.894" transform="translate(634.178 1494.338)" fill="#ffb8b8"/>
    <path id="Caminho_177" data-name="Caminho 177" d="M875.009,374.893a4.207,4.207,0,0,1,4.69-3.649l.787.1a4.207,4.207,0,0,1,3.649,4.69l-.01.079-1.663-.207-.369-1.659-.312,1.574-.859-.107-.186-.837-.157.794-5.58-.7Z" transform="translate(-242.103 1122.286)" fill="#2f2e41"/>
    <path id="Caminho_178" data-name="Caminho 178" d="M794.966,465.034a1.794,1.794,0,0,0,2.681.616l3.537,2.072,1.784-1.842-5.036-2.856a1.8,1.8,0,0,0-2.965,2.01Z" transform="translate(-175.941 1047.091)" fill="#ffb8b8"/>
    <path id="Caminho_179" data-name="Caminho 179" d="M826.589,454.743a40.263,40.263,0,0,1-7.455-1.233l-.08-.021.723-3.659,7.013,1.385,3.81-5.365,4.374-.445-.122.161c-.057.075-5.7,7.5-6.573,8.742C828.057,454.624,827.424,454.743,826.589,454.743Z" transform="translate(-195.971 1061.105)" fill="#3f3d56"/>
    <path id="Caminho_180" data-name="Caminho 180" d="M848.835,462.934l-.1-.05a8.529,8.529,0,0,1-3.387-3.194c-1.143-2.1,4.207-10.982,4.581-11.6l.005-2.822,1.924-5.2,2.454-1.387L852.2,443.6Z" transform="translate(-217.517 1066.646)" fill="#3f3d56"/>
    <path id="Caminho_181" data-name="Caminho 181" d="M706.984,573.058h-2.345l-1.116-9.047h3.462Z" transform="translate(-78.125 986.856)" fill="#ffb8b8"/>
    <path id="Caminho_182" data-name="Caminho 182" d="M819.838,748.543h-7.563v-.1a2.944,2.944,0,0,1,2.943-2.944h4.62Z" transform="translate(-190.381 813.644)" fill="#2f2e41"/>
    <path id="Caminho_183" data-name="Caminho 183" d="M838.183,563.454l-2.229.73-3.878-8.25,3.29-1.078Z" transform="translate(-184.131 994.404)" fill="#ffb8b8"/>
    <path id="Caminho_184" data-name="Caminho 184" d="M968.274,735.829l-7.186,2.355-.03-.091a2.944,2.944,0,0,1,1.881-3.714h0l4.39-1.438Z" transform="translate(-312.947 824.003)" fill="#2f2e41"/>
    <path id="Caminho_185" data-name="Caminho 185" d="M845.125,532.5l-6.686-11.163-5.644-11.926-5.079,10.535L825.7,533.593l-7.076.1.028-.111,10.829-43.027,8.481,1.267-.386,5.6.23.327c1.916,2.722,3.9,5.536,2.76,8.569l3.221,9.563,7.129,15.924Z" transform="translate(-195.614 1023.877)" fill="#2f2e41"/>
    <path id="Caminho_186" data-name="Caminho 186" d="M872.837,449.2c-1.229,0-2.631-1.4-1.9-3.8l-.047-.034,1.747-7.719c-1.525-2.181.486-3.98.674-4.141l.96-1.727L878.5,429.1l2.142,17.8-.032.03C879.064,448.405,873.868,449.2,872.837,449.2Z" transform="translate(-238.586 1074.554)" fill="#e42925"/>
    <path id="Caminho_187" data-name="Caminho 187" d="M913.38,449.195a2.083,2.083,0,0,1-.5-.053c-.165-.041-.431-.251-.843-1.592-1.638-5.332-3.571-21.374-2.166-22.944l.032-.036,2.306.384a3.409,3.409,0,0,1,2.126-.722,1.409,1.409,0,0,1,.964.57l.016.021.735,10.453,2.692,12.3-.065.029C918.521,447.677,915.16,449.195,913.38,449.195Z" transform="translate(-270.459 1078.577)" fill="#3f3d56"/>
    <path id="Caminho_188" data-name="Caminho 188" d="M914.5,510.939a1.794,1.794,0,0,0,1.695-2.167l3.376-2.325-.913-2.4-4.722,3.351a1.8,1.8,0,0,0,.563,3.538Z" transform="translate(-273.128 1012.746)" fill="#ffb8b8"/>
    <path id="Caminho_189" data-name="Caminho 189" d="M931.738,444.445l-3.007-2.205,4.227-5.764-3.244-5.725,1.451-4.15.094.179c.044.083,4.376,8.336,5.132,9.659.786,1.376-4.38,7.676-4.6,7.943Z" transform="translate(-286.41 1076.613)" fill="#3f3d56"/>
    <path id="Caminho_190" data-name="Caminho 190" d="M408.87,610.868l-2.559-1.078-1.756-12.831H381.173l-1.9,12.778-2.29,1.145a.544.544,0,0,0,.243,1.03h31.435a.544.544,0,0,0,.211-1.045Z" transform="translate(168.811 936.134)" fill="#e6e6e6"/>
    <path id="Caminho_191" data-name="Caminho 191" d="M246.451,519.851H131.594a2.276,2.276,0,0,1-2.27-2.276v-16.2h119.4v16.2a2.275,2.275,0,0,1-2.27,2.276Z" transform="translate(372.781 1014.95)" fill="#ccc"/>
    <path id="Caminho_192" data-name="Caminho 192" d="M248.348,206.324H128.726v-69.3a2.746,2.746,0,0,1,2.743-2.743H245.605a2.746,2.746,0,0,1,2.743,2.743Z" transform="translate(373.274 1317.66)" fill="#3f3d56"/>
    <path id="Caminho_193" data-name="Caminho 193" d="M264.851,224.94H159.518a2.117,2.117,0,0,1-2.115-2.115V165.071a2.117,2.117,0,0,1,2.115-2.115H264.851a2.117,2.117,0,0,1,2.115,2.115v57.754A2.117,2.117,0,0,1,264.851,224.94Z" transform="translate(349.627 1294.014)" fill="#f6f6f6"/>
    <path id="Caminho_194" data-name="Caminho 194" d="M358.575,680.457H299.387a.275.275,0,0,1-.27-.2.268.268,0,0,1,.259-.337h59.177a.283.283,0,0,1,.283.209.268.268,0,0,1-.262.326Z" transform="translate(232.777 867.723)" fill="#ccc"/>
    <rect id="Retângulo_33" data-name="Retângulo 33" width="25.432" height="19.43" transform="translate(587.921 1466.307)" fill="#f2f2f2"/>
    <rect id="Retângulo_34" data-name="Retângulo 34" width="22.905" height="17.499" transform="translate(589.185 1467.272)" fill="#fff"/>
    <path id="Caminho_195" data-name="Caminho 195" d="M692.727,238.391h.009a6.107,6.107,0,0,0,.137-12.188.139.139,0,0,0-.105.037.138.138,0,0,0-.045.1l-.134,11.91A.14.14,0,0,0,692.727,238.391Z" transform="translate(-91.688 1241.86)" fill="#3f3d56"/>
    <path id="Caminho_196" data-name="Caminho 196" d="M658.231,237.433a.18.18,0,0,1,.126.054l4.1,4.193a.178.178,0,0,1,.051.127l-.064,5.7a.177.177,0,0,1-.058.13.18.18,0,0,1-.135.047,6.147,6.147,0,0,1-4.157-10.189.18.18,0,0,1,.13-.061Z" transform="translate(-61.981 1232.6)" fill="#e6e6e6"/>
    <path id="Caminho_197" data-name="Caminho 197" d="M671.9,225.927a.18.18,0,0,1,.123.05.177.177,0,0,1,.055.131l-.058,5.142a.179.179,0,0,1-.307.123l-3.578-3.659a.179.179,0,0,1,.01-.26,6.16,6.16,0,0,1,3.744-1.527Z" transform="translate(-71.483 1242.088)" fill="#e42925"/>
    <path id="Caminho_198" data-name="Caminho 198" d="M669.021,304.561a1.1,1.1,0,1,1-1.085-1.109A1.1,1.1,0,0,1,669.021,304.561Z" transform="translate(-70.445 1178.161)" fill="#e42925"/>
    <path id="Caminho_199" data-name="Caminho 199" d="M686.886,304.762a1.1,1.1,0,1,1-1.085-1.109A1.1,1.1,0,0,1,686.886,304.762Z" transform="translate(-85.176 1177.995)" fill="#3f3d56"/>
    <path id="Caminho_200" data-name="Caminho 200" d="M704.752,304.962a1.1,1.1,0,1,1-1.084-1.109A1.1,1.1,0,0,1,704.752,304.962Z" transform="translate(-99.909 1177.83)" fill="#e6e6e6"/>
    <rect id="Retângulo_35" data-name="Retângulo 35" width="25.432" height="19.43" transform="translate(587.653 1488.794)" fill="#f2f2f2"/>
    <rect id="Retângulo_36" data-name="Retângulo 36" width="22.905" height="17.499" transform="translate(588.917 1489.76)" fill="#fff"/>
    <circle id="Elipse_24" data-name="Elipse 24" cx="0.951" cy="0.951" r="0.951" transform="translate(591.852 1493.609)" fill="#3f3d56"/>
    <path id="Caminho_201" data-name="Caminho 201" d="M682.74,372.306a.645.645,0,0,1,0,1.29h-10a.645.645,0,0,1,0-1.29h10m0-.158h-10a.8.8,0,0,0,0,1.606h10a.8.8,0,0,0,0-1.606Z" transform="translate(-74.657 1121.513)" fill="#3f3d56"/>
    <path id="Caminho_202" data-name="Caminho 202" d="M671.865,373.754h-7.53a.8.8,0,1,1,0-1.606h7.53a.8.8,0,1,1,0,1.606Z" transform="translate(-67.727 1121.513)" fill="#e42925"/>
    <circle id="Elipse_25" data-name="Elipse 25" cx="0.951" cy="0.951" r="0.951" transform="translate(591.852 1497.558)" fill="#3f3d56"/>
    <path id="Caminho_203" data-name="Caminho 203" d="M682.74,394.821a.645.645,0,1,1,0,1.29h-10a.645.645,0,1,1,0-1.29h10m0-.158h-10a.8.8,0,0,0,0,1.606h10a.8.8,0,0,0,0-1.606Z" transform="translate(-74.657 1102.948)" fill="#3f3d56"/>
    <path id="Caminho_204" data-name="Caminho 204" d="M674.707,396.269H664.334a.8.8,0,0,1,0-1.606h10.373a.8.8,0,0,1,0,1.606Z" transform="translate(-67.727 1102.947)" fill="#e42925"/>
    <circle id="Elipse_26" data-name="Elipse 26" cx="0.951" cy="0.951" r="0.951" transform="translate(591.852 1501.507)" fill="#3f3d56"/>
    <path id="Caminho_205" data-name="Caminho 205" d="M682.74,417.336a.645.645,0,1,1,0,1.29h-10a.645.645,0,0,1,0-1.29h10m0-.158h-10a.8.8,0,0,0,0,1.606h10a.8.8,0,0,0,0-1.606Z" transform="translate(-74.657 1084.382)" fill="#3f3d56"/>
    <path id="Caminho_206" data-name="Caminho 206" d="M668.547,418.784h-4.212a.8.8,0,0,1,0-1.606h4.212a.8.8,0,1,1,0,1.606Z" transform="translate(-67.727 1084.381)" fill="#e42925"/>
    <rect id="Retângulo_37" data-name="Retângulo 37" width="71.053" height="36.415" transform="translate(510.978 1469.744)" fill="#f2f2f2"/>
    <rect id="Retângulo_38" data-name="Retângulo 38" width="66.316" height="32.796" transform="translate(513.347 1471.554)" fill="#fff"/>
    <path id="Caminho_207" data-name="Caminho 207" d="M296.628,294.2H248.285a.151.151,0,0,1-.151-.151V270.88a.151.151,0,0,1,.3,0V293.9h48.192a.151.151,0,1,1,0,.3Z" transform="translate(274.811 1205.144)" fill="#3f3d56"/>
    <path id="Caminho_208" data-name="Caminho 208" d="M285.1,362.351h-4.4a.45.45,0,0,1-.449-.449v-6.061a.45.45,0,0,1,.449-.449h4.4a.45.45,0,0,1,.449.449V361.9A.45.45,0,0,1,285.1,362.351Z" transform="translate(248.324 1135.331)" fill="#e42925"/>
    <path id="Caminho_209" data-name="Caminho 209" d="M330.816,335.322h-4.4a.45.45,0,0,1-.449-.449v-11.81a.45.45,0,0,1,.449-.449h4.4a.45.45,0,0,1,.449.449v11.81A.45.45,0,0,1,330.816,335.322Z" transform="translate(210.626 1162.36)" fill="#e42925"/>
    <path id="Caminho_210" data-name="Caminho 210" d="M376.532,362.351h-4.4a.45.45,0,0,1-.449-.449v-6.061a.45.45,0,0,1,.449-.449h4.4a.45.45,0,0,1,.449.449V361.9A.45.45,0,0,1,376.532,362.351Z" transform="translate(172.929 1135.331)" fill="#e42925"/>
    <path id="Caminho_211" data-name="Caminho 211" d="M422.248,324.653h-4.4a.44.44,0,0,1-.449-.429V310.1a.44.44,0,0,1,.449-.429h4.4a.44.44,0,0,1,.449.429v14.12A.44.44,0,0,1,422.248,324.653Z" transform="translate(135.232 1173.029)" fill="#e42925"/>
    <path id="Caminho_212" data-name="Caminho 212" d="M467.963,305.449h-4.4a.45.45,0,0,1-.449-.449V286.836a.45.45,0,0,1,.449-.449h4.4a.45.45,0,0,1,.449.449V305a.45.45,0,0,1-.449.449Z" transform="translate(97.535 1192.233)" fill="#e42925"/>
    <circle id="Elipse_27" data-name="Elipse 27" cx="0.908" cy="0.908" r="0.908" transform="translate(530.318 1487.092)" fill="#3f3d56"/>
    <circle id="Elipse_28" data-name="Elipse 28" cx="0.908" cy="0.908" r="0.908" transform="translate(538.336 1481.191)" fill="#3f3d56"/>
    <circle id="Elipse_29" data-name="Elipse 29" cx="0.908" cy="0.908" r="0.908" transform="translate(546.355 1487.092)" fill="#3f3d56"/>
    <circle id="Elipse_30" data-name="Elipse 30" cx="0.908" cy="0.908" r="0.908" transform="translate(554.373 1478.317)" fill="#3f3d56"/>
    <circle id="Elipse_31" data-name="Elipse 31" cx="0.908" cy="0.908" r="0.908" transform="translate(562.392 1474.988)" fill="#3f3d56"/>
    <path id="Caminho_213" data-name="Caminho 213" d="M182.253,148.686l-8.038-6.02-7.928,5.938-.181-.242,8.109-6.074,8,5.992,7.949-8.7.032-.013,8.019-3.231.113.281-7.987,3.218Z" transform="translate(365.029 1339.516)" fill="#3f3d56"/>
  </g>
</svg>
