<svg id="youtube-fill" xmlns="http://www.w3.org/2000/svg" width="47.238" height="47.238" viewBox="0 0 47.238 47.238">
  <path id="Caminho_382" data-name="Caminho 382" d="M0,0H47.238V47.238H0Z" fill="none"/>
  <path id="Caminho_383" data-name="Caminho 383" d="M40.466,8.917c.9,3.507.9,10.829.9,10.829s0,7.322-.9,10.829a5.533,5.533,0,0,1-3.814,3.98c-3.364.937-14.969.937-14.969.937s-11.6,0-14.969-.937A5.532,5.532,0,0,1,2.9,30.575C2,27.068,2,19.746,2,19.746s0-7.322.9-10.829a5.533,5.533,0,0,1,3.814-3.98C10.084,4,21.683,4,21.683,4s11.6,0,14.969.937A5.532,5.532,0,0,1,40.466,8.917ZM17.746,26.635l11.81-6.889-11.81-6.889Z" transform="translate(1.937 3.873)" fill="#f5f5f5"/>
</svg>
