<svg xmlns="http://www.w3.org/2000/svg" width="134.667" height="110.754" viewBox="0 0 134.667 110.754">
  <g id="Grupo_9" data-name="Grupo 9" transform="translate(-135 -1376)">
    <path id="Caminho_92" data-name="Caminho 92" d="M788.506,167.04c.861-3.509.042-7.6-2.737-9.911a16.648,16.648,0,0,1-4.072,10.68c-1,1.141-2.225,2.306-2.274,3.821a3.722,3.722,0,0,0,1.064,2.546,11.055,11.055,0,0,0,2.224,1.735l.116.2C785.371,173.55,787.646,170.55,788.506,167.04Z" transform="translate(-543.91 1220.09)" fill="#f5bb80"/>
    <path id="Caminho_93" data-name="Caminho 93" d="M796.013,156.885a14.229,14.229,0,0,1,.453,8.743,6.126,6.126,0,0,1-.748,1.768,3.515,3.515,0,0,1-1.4,1.212,7.275,7.275,0,0,0-1.536.86,2.152,2.152,0,0,0-.724,1.6,5.592,5.592,0,0,0,.5,2.168,5.491,5.491,0,0,1,.554,2.41c-.008.1.151.109.159.007.121-1.468-.876-2.708-1.034-4.131a2.179,2.179,0,0,1,.543-1.839,5.643,5.643,0,0,1,1.543-.9,3.751,3.751,0,0,0,1.411-1.134,5.667,5.667,0,0,0,.814-1.733,13.8,13.8,0,0,0,.552-4.279,14.48,14.48,0,0,0-.947-4.827C796.117,156.715,795.977,156.79,796.013,156.885Z" transform="translate(-554.21 1220.386)" fill="#fff"/>
    <path id="Caminho_94" data-name="Caminho 94" d="M817.214,192.624a2.135,2.135,0,0,0,2.315-1.511c.029-.1-.123-.148-.151-.049a1.977,1.977,0,0,1-2.156,1.4C817.119,192.451,817.113,192.61,817.214,192.624Z" transform="translate(-574.655 1192.475)" fill="#fff"/>
    <path id="Caminho_95" data-name="Caminho 95" d="M801.213,207.269a4.115,4.115,0,0,1-.873-2.869c.008-.1-.151-.109-.159-.007a4.28,4.28,0,0,0,.914,2.984c.064.08.181-.027.118-.107Z" transform="translate(-560.82 1181.626)" fill="#fff"/>
    <path id="Caminho_96" data-name="Caminho 96" d="M812.861,172.494a1.208,1.208,0,0,1-1.049-.462c-.063-.081-.18.027-.118.107a1.354,1.354,0,0,0,1.16.514.082.082,0,0,0,.083-.076A.08.08,0,0,0,812.861,172.494Z" transform="translate(-570.2 1207.968)" fill="#fff"/>
    <path id="Caminho_97" data-name="Caminho 97" d="M748.735,169.416c.038.052.076.1.113.157a15.918,15.918,0,0,1,1.336,2.209c.031.059.061.12.09.18a16.777,16.777,0,0,1,1.628,5.959,16.279,16.279,0,0,1,.011,2.476,10.61,10.61,0,0,0,.03,3.434,2.8,2.8,0,0,0,.108.329l5.5,2.1.044,0,.216.094c.006-.042.011-.086.017-.129,0-.025.006-.05.01-.074s0-.033.007-.048,0-.011,0-.015,0-.029.006-.042q.046-.369.086-.74s0,0,0,0a23.961,23.961,0,0,0,0-5.664c-.007-.056-.014-.113-.024-.17a15.534,15.534,0,0,0-.55-2.477,13.731,13.731,0,0,0-.482-1.3,11.43,11.43,0,0,0-1.909-3.021,9.076,9.076,0,0,0-6.063-3.233Z" transform="translate(-518.898 1210.076)" fill="#f5bb80"/>
    <path id="Caminho_98" data-name="Caminho 98" d="M748.482,169.131a14.23,14.23,0,0,1,5.626,6.708,6.13,6.13,0,0,1,.467,1.862,3.515,3.515,0,0,1-.386,1.809,7.275,7.275,0,0,0-.709,1.612,2.152,2.152,0,0,0,.388,1.717,5.591,5.591,0,0,0,1.7,1.43,5.491,5.491,0,0,1,1.893,1.591c.055.087.186,0,.131-.09-.787-1.245-2.33-1.634-3.313-2.676a2.18,2.18,0,0,1-.674-1.8,5.645,5.645,0,0,1,.688-1.65,3.75,3.75,0,0,0,.443-1.755,5.664,5.664,0,0,0-.393-1.873,13.8,13.8,0,0,0-2.136-3.749,14.483,14.483,0,0,0-3.662-3.284C748.464,168.933,748.4,169.077,748.482,169.131Z" transform="translate(-518.66 1210.435)" fill="#fff"/>
    <path id="Caminho_99" data-name="Caminho 99" d="M776.85,189.469a2.135,2.135,0,0,0,.939-2.6c-.036-.1-.187-.044-.151.052a1.977,1.977,0,0,1-.878,2.417c-.089.051,0,.182.09.131Z" transform="translate(-541.711 1195.892)" fill="#fff"/>
    <path id="Caminho_100" data-name="Caminho 100" d="M769.092,216.668a4.115,4.115,0,0,1-2.424-1.765c-.055-.086-.186,0-.131.09a4.28,4.28,0,0,0,2.526,1.832C769.162,216.85,769.191,216.694,769.092,216.668Z" transform="translate(-533.396 1173.029)" fill="#fff"/>
    <path id="Caminho_101" data-name="Caminho 101" d="M757.432,180.739a1.209,1.209,0,0,1-1.116.263c-.1-.027-.128.13-.029.157a1.354,1.354,0,0,0,1.235-.288.082.082,0,0,0,.021-.111A.08.08,0,0,0,757.432,180.739Z" transform="translate(-525.003 1200.858)" fill="#fff"/>
    <path id="Caminho_102" data-name="Caminho 102" d="M561.844,303.055a33.47,33.47,0,1,1,5.825-66.435.185.185,0,0,1-.068.364,33.1,33.1,0,1,0,27.343,32.6,33.016,33.016,0,0,0-8.635-22.3.185.185,0,1,1,.273-.249,33.47,33.47,0,0,1-24.739,56.015Z" transform="translate(-339.286 1155.711)" fill="#f5bb80"/>
    <circle id="Elipse_11" data-name="Elipse 11" cx="6.622" cy="6.622" r="6.622" transform="translate(230.694 1390.061)" fill="#e42925"/>
    <path id="Caminho_103" data-name="Caminho 103" d="M773.086,250.635a.736.736,0,0,1-.589-.295l-1.807-2.409a.737.737,0,0,1,1.179-.884l1.182,1.576,3.036-4.553a.737.737,0,1,1,1.226.817l-3.613,5.42a.737.737,0,0,1-.592.328Z" transform="translate(-536.673 1149.494)" fill="#fff"/>
    <path id="Caminho_104" data-name="Caminho 104" d="M533.678,194.634l-10.212-28.409.259-.093-1.878-5.225-.259.093-3.135-8.722a2.636,2.636,0,0,0-3.372-1.589l-18.461,6.636a2.636,2.636,0,0,0-1.589,3.372l2.186,6.082-.409.158,1.4,3.624.328-.126.29.806-.349.134,1.4,3.624.267-.1,10.122,28.158a2.631,2.631,0,0,0,3.372,1.589l18.461-6.636A2.639,2.639,0,0,0,533.678,194.634Z" transform="translate(-311.98 1225.467)" fill="#3f3d56"/>
    <path id="Caminho_105" data-name="Caminho 105" d="M517.656,208.114a1.266,1.266,0,0,1-1.188-.837l-15.386-42.8a1.263,1.263,0,0,1,.761-1.616l3.928-1.412-.006.137a1.456,1.456,0,0,0,1.947,1.432l8.717-3.133a1.475,1.475,0,0,0,.83-1.042,1.444,1.444,0,0,0-.344-1.264l-.092-.1,4.057-1.458a1.265,1.265,0,0,1,1.616.762l14.68,40.838a3.356,3.356,0,0,1-2.021,4.288l-17.072,6.137A1.265,1.265,0,0,1,517.656,208.114Z" transform="translate(-316.98 1221.06)" fill="#fff"/>
    <circle id="Elipse_12" data-name="Elipse 12" cx="4.993" cy="4.993" r="4.993" transform="translate(194.18 1388.828)" fill="#e42925"/>
    <path id="Caminho_106" data-name="Caminho 106" d="M571.024,282.433l-17.29,6.215a.437.437,0,1,1-.3-.822l17.29-6.215a.437.437,0,0,1,.3.822Z" transform="translate(-359.48 1118.649)" fill="#e6e6e6"/>
    <path id="Caminho_107" data-name="Caminho 107" d="M594.4,303.743l-5.687,2.044a.437.437,0,0,1-.3-.822l5.687-2.044a.437.437,0,0,1,.3.822Z" transform="translate(-387.991 1101.28)" fill="#e6e6e6"/>
    <path id="Caminho_108" data-name="Caminho 108" d="M601.716,324.094l-5.687,2.044a.437.437,0,0,1-.3-.822l5.687-2.044a.437.437,0,0,1,.3.822Z" transform="translate(-393.953 1084.692)" fill="#e6e6e6"/>
    <path id="Caminho_109" data-name="Caminho 109" d="M605.463,334.518l-5.687,2.044a.437.437,0,1,1-.3-.822l5.687-2.044a.437.437,0,1,1,.3.822Z" transform="translate(-397.007 1076.195)" fill="#e6e6e6"/>
    <path id="Caminho_110" data-name="Caminho 110" d="M587.138,307.576l-12.066,4.337a.437.437,0,1,1-.3-.822l12.066-4.337a.437.437,0,1,1,.3.822Z" transform="translate(-376.871 1098.155)" fill="#e6e6e6"/>
    <path id="Caminho_111" data-name="Caminho 111" d="M616.274,357.2l-2.065.742a.743.743,0,0,1-.5-1.4l2.065-.742a.743.743,0,0,1,.5,1.4Z" transform="translate(-408.438 1058.189)" fill="#e42925"/>
    <circle id="Elipse_13" data-name="Elipse 13" cx="0.287" cy="0.287" r="0.287" transform="translate(191.276 1382.07)" fill="#fff"/>
    <path id="Caminho_112" data-name="Caminho 112" d="M338.742,249.034c3.219-3.789,8.441-6.176,13.256-4.938a22.9,22.9,0,0,0-8.624,13.15c-.468,2.032-.777,4.34-2.427,5.615a5.12,5.12,0,0,1-3.7.866,15.206,15.206,0,0,1-3.727-1.081l-.322.036C334.012,257.777,335.523,252.823,338.742,249.034Z" transform="translate(-180.205 1149.474)" fill="#f5bb80"/>
    <path id="Caminho_113" data-name="Caminho 113" d="M352.094,245.132a19.577,19.577,0,0,0-10.112,6.544,8.43,8.43,0,0,0-1.368,2.26,4.835,4.835,0,0,0-.224,2.535,10.009,10.009,0,0,1,.279,2.406,2.961,2.961,0,0,1-1.2,2.1,7.693,7.693,0,0,1-2.82,1.191,7.554,7.554,0,0,0-3.133,1.325c-.107.092-.243-.08-.136-.172,1.539-1.318,3.725-1.206,5.44-2.178a3,3,0,0,0,1.612-2.089,7.765,7.765,0,0,0-.237-2.448,5.16,5.16,0,0,1,.127-2.487,7.8,7.8,0,0,1,1.276-2.3,18.994,18.994,0,0,1,4.326-4.066,19.925,19.925,0,0,1,6.145-2.836c.136-.036.166.181.031.217Z" transform="translate(-180.314 1148.541)" fill="#fff"/>
    <path id="Caminho_114" data-name="Caminho 114" d="M380.8,258.74a2.937,2.937,0,0,1-.182-3.8c.086-.111.264.018.177.129a2.72,2.72,0,0,0,.177,3.534C381.065,258.707,380.893,258.842,380.8,258.74Z" transform="translate(-218.352 1140.4)" fill="#fff"/>
    <path id="Caminho_115" data-name="Caminho 115" d="M370.322,299.269a5.661,5.661,0,0,0,3.9-1.34c.107-.091.244.08.136.172a5.889,5.889,0,0,1-4.063,1.386c-.141-.006-.115-.224.025-.218Z" transform="translate(-210.363 1105.348)" fill="#fff"/>
    <path id="Caminho_116" data-name="Caminho 116" d="M410.947,254.66a1.663,1.663,0,0,0,1.361.8c.141,0,.115.222-.025.218a1.863,1.863,0,0,1-1.508-.879.113.113,0,0,1,.018-.154A.11.11,0,0,1,410.947,254.66Z" transform="translate(-243.415 1140.628)" fill="#fff"/>
    <path id="Caminho_117" data-name="Caminho 117" d="M358.088,308.466c-.088,0-.176,0-.266,0a21.9,21.9,0,0,0-3.54.292c-.091.013-.182.029-.273.045a23.082,23.082,0,0,0-7.955,2.989,22.416,22.416,0,0,0-2.769,1.983,14.593,14.593,0,0,1-3.852,2.734,3.848,3.848,0,0,1-.453.145l-6.777-4.445c-.01-.018-.022-.034-.032-.052l-.279-.165.129-.123.075-.07c.017-.016.034-.031.048-.046l.016-.014c.014-.015.029-.027.042-.041q.374-.348.755-.692l0,0a32.959,32.959,0,0,1,6.313-4.568c.068-.037.138-.075.209-.11a21.392,21.392,0,0,1,3.2-1.383,18.9,18.9,0,0,1,1.843-.514,15.725,15.725,0,0,1,4.907-.307,12.486,12.486,0,0,1,8.493,4.153C357.984,308.338,358.036,308.4,358.088,308.466Z" transform="translate(-179.136 1100.337)" fill="#f5bb80"/>
    <path id="Caminho_118" data-name="Caminho 118" d="M358.563,321.066a19.577,19.577,0,0,0-12.014-.863,8.43,8.43,0,0,0-2.453.981,4.835,4.835,0,0,0-1.705,1.889,10.007,10.007,0,0,1-1.226,2.089,2.961,2.961,0,0,1-2.226.952,7.691,7.691,0,0,1-2.969-.747,7.553,7.553,0,0,0-3.3-.828c-.141.009-.146-.21-.006-.219,2.022-.126,3.7,1.28,5.654,1.536a3,3,0,0,0,2.545-.7,7.765,7.765,0,0,0,1.285-2.1,5.159,5.159,0,0,1,1.6-1.909,7.794,7.794,0,0,1,2.406-1.072,18.993,18.993,0,0,1,5.9-.642,19.924,19.924,0,0,1,6.614,1.435c.13.053.024.244-.106.192Z" transform="translate(-179.683 1087.813)" fill="#fff"/>
    <path id="Caminho_119" data-name="Caminho 119" d="M414.984,307.674a2.937,2.937,0,0,1,2.142-3.143c.136-.037.2.173.064.21a2.72,2.72,0,0,0-1.986,2.928C415.218,307.809,415,307.814,414.984,307.674Z" transform="translate(-246.85 1099.949)" fill="#fff"/>
    <path id="Caminho_120" data-name="Caminho 120" d="M385.662,336.983a5.661,5.661,0,0,0,3.922,1.28c.141-.008.146.211.006.219a5.889,5.889,0,0,1-4.079-1.34C385.4,337.052,385.554,336.893,385.662,336.983Z" transform="translate(-222.81 1073.517)" fill="#fff"/>
    <path id="Caminho_121" data-name="Caminho 121" d="M448.568,321.008a1.663,1.663,0,0,0,.607,1.456c.11.089-.042.247-.151.159a1.863,1.863,0,0,1-.675-1.609.113.113,0,0,1,.107-.112A.11.11,0,0,1,448.568,321.008Z" transform="translate(-274.052 1086.603)" fill="#fff"/>
    <path id="Caminho_122" data-name="Caminho 122" d="M845.519,626c3.509.86,7.6.042,9.911-2.738a16.649,16.649,0,0,1-10.68-4.072c-1.141-1-2.306-2.225-3.821-2.274a3.722,3.722,0,0,0-2.546,1.064,11.054,11.054,0,0,0-1.735,2.224l-.2.116C839.009,622.865,842.01,625.139,845.519,626Z" transform="translate(-590.387 845.327)" fill="#f0f0f0"/>
    <path id="Caminho_123" data-name="Caminho 123" d="M855.771,633.506a14.23,14.23,0,0,1-8.743.453,6.129,6.129,0,0,1-1.768-.749,3.514,3.514,0,0,1-1.212-1.4,7.28,7.28,0,0,0-.86-1.536,2.152,2.152,0,0,0-1.6-.724,5.591,5.591,0,0,0-2.168.5,5.489,5.489,0,0,1-2.41.554c-.1-.008-.109.151-.007.159,1.468.121,2.708-.876,4.132-1.034a2.18,2.18,0,0,1,1.839.543,5.645,5.645,0,0,1,.9,1.543,3.751,3.751,0,0,0,1.134,1.411,5.665,5.665,0,0,0,1.733.814,13.8,13.8,0,0,0,4.279.552,14.484,14.484,0,0,0,4.827-.947C855.941,633.61,855.866,633.47,855.771,633.506Z" transform="translate(-590.78 835.027)" fill="#fff"/>
    <path id="Caminho_124" data-name="Caminho 124" d="M896.437,654.707a2.135,2.135,0,0,0,1.511,2.315c.1.029.148-.123.049-.151a1.977,1.977,0,0,1-1.4-2.156C896.609,654.612,896.45,654.606,896.437,654.707Z" transform="translate(-639.273 814.583)" fill="#fff"/>
    <path id="Caminho_125" data-name="Caminho 125" d="M875.381,638.706a4.115,4.115,0,0,1,2.869-.873c.1.008.109-.151.007-.159a4.28,4.28,0,0,0-2.984.914C875.194,638.652,875.3,638.769,875.381,638.706Z" transform="translate(-622.015 828.417)" fill="#fff"/>
    <path id="Caminho_126" data-name="Caminho 126" d="M920.875,650.355a1.208,1.208,0,0,1,.462-1.049c.081-.063-.027-.18-.107-.118a1.354,1.354,0,0,0-.514,1.16.082.082,0,0,0,.076.083.08.08,0,0,0,.083-.076Z" transform="translate(-659.074 819.037)" fill="#fff"/>
    <path id="Caminho_127" data-name="Caminho 127" d="M852.2,586.228l-.157.113a15.917,15.917,0,0,1-2.209,1.336c-.059.031-.12.061-.18.09a16.779,16.779,0,0,1-5.959,1.628,16.3,16.3,0,0,1-2.476.011,10.61,10.61,0,0,0-3.434.03,2.8,2.8,0,0,0-.329.108l-2.1,5.5c0,.015,0,.029,0,.044l-.094.216.129.017.074.01.048.007.015,0,.042.006q.369.046.74.086h0a23.961,23.961,0,0,0,5.664,0c.056-.007.113-.014.17-.024a15.547,15.547,0,0,0,2.477-.55,13.737,13.737,0,0,0,1.3-.482,11.429,11.429,0,0,0,3.021-1.91,9.076,9.076,0,0,0,3.233-6.063C852.2,586.348,852.2,586.289,852.2,586.228Z" transform="translate(-589.434 870.34)" fill="#f0f0f0"/>
    <path id="Caminho_128" data-name="Caminho 128" d="M852.536,585.975a14.23,14.23,0,0,1-6.708,5.626,6.129,6.129,0,0,1-1.862.467,3.514,3.514,0,0,1-1.809-.386,7.275,7.275,0,0,0-1.612-.709,2.152,2.152,0,0,0-1.717.388,5.59,5.59,0,0,0-1.43,1.7,5.489,5.489,0,0,1-1.591,1.893c-.087.055,0,.186.09.131,1.245-.787,1.634-2.33,2.676-3.313a2.179,2.179,0,0,1,1.8-.674,5.642,5.642,0,0,1,1.65.688,3.752,3.752,0,0,0,1.755.443,5.666,5.666,0,0,0,1.873-.394,13.806,13.806,0,0,0,3.749-2.136,14.483,14.483,0,0,0,3.284-3.662c.054-.087-.09-.154-.144-.068Z" transform="translate(-589.84 870.578)" fill="#fff"/>
    <path id="Caminho_129" data-name="Caminho 129" d="M895.044,614.344a2.135,2.135,0,0,0,2.6.939c.1-.036.044-.187-.052-.151a1.977,1.977,0,0,1-2.417-.878C895.125,614.164,894.994,614.255,895.044,614.344Z" transform="translate(-638.143 847.526)" fill="#fff"/>
    <path id="Caminho_130" data-name="Caminho 130" d="M870.944,606.586a4.115,4.115,0,0,1,1.765-2.424c.086-.055,0-.186-.09-.131a4.28,4.28,0,0,0-1.832,2.526C870.761,606.656,870.918,606.685,870.944,606.586Z" transform="translate(-618.378 855.84)" fill="#fff"/>
    <path id="Caminho_131" data-name="Caminho 131" d="M913.4,594.925a1.209,1.209,0,0,1-.263-1.116c.027-.1-.13-.128-.156-.029a1.354,1.354,0,0,0,.288,1.235.082.082,0,0,0,.111.021A.08.08,0,0,0,913.4,594.925Z" transform="translate(-652.737 864.234)" fill="#fff"/>
    <path id="Caminho_132" data-name="Caminho 132" d="M667.515,376.131l-5.352,9.005.2.107-1.812,3.436-.377-.2-1.191,2,.3.17-1.942,3.362L657,393.82l-17.462,29.387a3.379,3.379,0,0,1-4.627,1.178L602.454,405.1a3.379,3.379,0,0,1-1.178-4.627l27.973-47.076a3.379,3.379,0,0,1,4.627-1.178L666.337,371.5A3.38,3.38,0,0,1,667.515,376.131Z" transform="translate(-398.321 1061.465)" fill="#3f3d56"/>
    <path id="Caminho_133" data-name="Caminho 133" d="M645.7,432.02l-32.577-19.357a1.042,1.042,0,0,1-.363-1.426l28.158-47.389a1.042,1.042,0,0,1,1.426-.363l32.577,19.357a1.042,1.042,0,0,1,.363,1.426l-28.158,47.389a1.042,1.042,0,0,1-1.426.363Z" transform="translate(-407.951 1052.013)" fill="#fff"/>
    <circle id="Elipse_14" data-name="Elipse 14" cx="0.287" cy="0.287" r="0.287" transform="translate(250.846 1423.852)" fill="#fff"/>
    <path id="Caminho_134" data-name="Caminho 134" d="M732.806,518.609l-27.193-16.158a.752.752,0,0,1,.768-1.293l27.193,16.158a.752.752,0,0,1-.768,1.293Z" transform="translate(-483.449 939.764)" fill="#e6e6e6"/>
    <path id="Caminho_135" data-name="Caminho 135" d="M754.524,552.863l-8.945-5.315a.752.752,0,0,1,.768-1.293l8.945,5.315a.752.752,0,1,1-.768,1.293Z" transform="translate(-516.026 903.006)" fill="#e6e6e6"/>
    <path id="Caminho_136" data-name="Caminho 136" d="M735.506,584.87l-8.945-5.315a.752.752,0,1,1,.768-1.293l8.945,5.315a.752.752,0,1,1-.768,1.293Z" transform="translate(-500.525 876.918)" fill="#e6e6e6"/>
    <path id="Caminho_137" data-name="Caminho 137" d="M725.765,601.265l-8.945-5.315a.752.752,0,1,1,.768-1.293l8.945,5.315a.752.752,0,1,1-.768,1.293Z" transform="translate(-492.585 863.555)" fill="#e6e6e6"/>
    <path id="Caminho_138" data-name="Caminho 138" d="M728.054,558.485l-18.978-11.276a.752.752,0,0,1,.768-1.293l18.978,11.276a.752.752,0,1,1-.768,1.293Z" transform="translate(-486.273 903.283)" fill="#e6e6e6"/>
    <path id="Caminho_139" data-name="Caminho 139" d="M776.691,673.3l-3.248-1.93a1.279,1.279,0,1,1,1.306-2.2L778,671.1a1.279,1.279,0,0,1-1.306,2.2Z" transform="translate(-538.527 802.883)" fill="#e42925"/>
    <circle id="Elipse_15" data-name="Elipse 15" cx="6.657" cy="6.657" r="6.657" transform="translate(237.566 1431.533)" fill="#e42925"/>
    <path id="Caminho_140" data-name="Caminho 140" d="M236.3,396.745h90.088V344.589a1.476,1.476,0,0,0-1.474-1.474h-87.14a1.476,1.476,0,0,0-1.474,1.474Z" transform="translate(-101.22 1068.497)" fill="#cacaca"/>
    <rect id="Retângulo_8" data-name="Retângulo 8" width="84.522" height="47.984" transform="translate(137.862 1413.651)" fill="#fff"/>
    <path id="Caminho_141" data-name="Caminho 141" d="M235.874,625.5v6.436a2.032,2.032,0,0,0,2.032,2.032h33.251v12.7h-.442a.264.264,0,0,0-.264.264v.883a.264.264,0,0,0,.264.264h20.642a.264.264,0,0,0,.264-.264v-.883a.264.264,0,0,0-.264-.264h-.442v-12.7h33.251a2.032,2.032,0,0,0,2.032-2.032V625.5Z" transform="translate(-100.874 838.328)" fill="#3f3d56"/>
    <path id="Caminho_142" data-name="Caminho 142" d="M461.666,432.536H421.639a.951.951,0,1,1,0-1.9h40.026a.951.951,0,0,1,0,1.9Z" transform="translate(-251.513 997.162)" fill="#e6e6e6"/>
    <path id="Caminho_143" data-name="Caminho 143" d="M507.433,455.761H494.267a.951.951,0,1,1,0-1.9h13.166a.951.951,0,1,1,0,1.9Z" transform="translate(-310.71 978.232)" fill="#e6e6e6"/>
    <path id="Caminho_144" data-name="Caminho 144" d="M507.433,502.872H494.267a.951.951,0,1,1,0-1.9h13.166a.951.951,0,0,1,0,1.9Z" transform="translate(-310.71 939.832)" fill="#e6e6e6"/>
    <path id="Caminho_145" data-name="Caminho 145" d="M507.433,527H494.267a.951.951,0,0,1,0-1.9h13.166a.951.951,0,0,1,0,1.9Z" transform="translate(-310.71 920.164)" fill="#e6e6e6"/>
    <path id="Caminho_146" data-name="Caminho 146" d="M482.271,478.987H454.337a.951.951,0,1,1,0-1.9h27.933a.951.951,0,1,1,0,1.9Z" transform="translate(-278.164 959.301)" fill="#e6e6e6"/>
    <path id="Caminho_147" data-name="Caminho 147" d="M610.481,570.533H605.7a1.618,1.618,0,0,1,0-3.236h4.78a1.618,1.618,0,0,1,0,3.236Z" transform="translate(-400.995 885.77)" fill="#e42925"/>
    <circle id="Elipse_16" data-name="Elipse 16" cx="8.321" cy="8.321" r="8.321" transform="translate(149.219 1427.918)" fill="#e42925"/>
    <path id="Caminho_148" data-name="Caminho 148" d="M355.791,747.53h-119.7a.22.22,0,1,1,0-.44h119.7a.22.22,0,1,1,0,.44Z" transform="translate(-100.874 739.224)" fill="#cacaca"/>
    <circle id="Elipse_17" data-name="Elipse 17" cx="0.314" cy="0.314" r="0.314" transform="translate(179.77 1412.004)" fill="#fff"/>
  </g>
</svg>
