<svg id="amazon-fill" xmlns="http://www.w3.org/2000/svg" width="88.146" height="88.146" viewBox="0 0 88.146 88.146">
  <path id="Caminho_312" data-name="Caminho 312" d="M0,0H88.146V88.145H0Z" fill="none"/>
  <path id="Caminho_313" data-name="Caminho 313" d="M75.442,58.936c0,2.67-1.487,7.812-4.826,10.636-.668.514-1.341.224-1.047-.525.973-2.38,3.2-7.885,2.156-9.152-.735-.962-3.783-.892-6.383-.668-1.19.151-2.229.22-3.041.386-.746.062-.9-.6-.151-1.113a11.419,11.419,0,0,1,3.2-1.572c4.224-1.263,9.108-.5,9.806.3.132.154.294.588.294,1.7Zm-7.055,4.753a27.272,27.272,0,0,1-3.048,2.02,54.04,54.04,0,0,1-26.657,7.136A53.489,53.489,0,0,1,2.365,58.932c-.819-.668-.14-1.638.819-1.113A72.879,72.879,0,0,0,39.5,67.486a71.546,71.546,0,0,0,25.838-4.907c.595-.224,1.263-.529,1.847-.742C68.537,61.231,69.723,62.73,68.386,63.688ZM45.726,23.178c0-3.823.151-6.075-1.117-8.007a6.23,6.23,0,0,0-5.759-2.395,7.383,7.383,0,0,0-6.883,5.6,2.035,2.035,0,0,1-1.6,1.774L21.42,19.017A1.5,1.5,0,0,1,20.127,17.1C22.048,7,30.686,3.474,38.85,3h1.921c4.481,0,10.236,1.282,13.92,4.642,4.47,4.172,4,9.777,4,15.866V37.931c0,4.326,1.752,6.244,3.518,8.5a1.745,1.745,0,0,1-.165,2.406c-1.763,1.6-5.12,4.477-7.041,6.075a2.133,2.133,0,0,1-2.24.165c-2.828-2.369-3.518-3.684-5.27-6.089-3.048,3.2-5.6,4.966-8.649,5.924a25.838,25.838,0,0,1-6.552.793c-7.676,0-13.758-4.786-13.758-14.25,0-7.525,4-12.642,9.916-15.062s14.507-3.2,17.277-3.21ZM43.97,42.247c1.91-3.2,1.752-5.825,1.752-11.7a30.839,30.839,0,0,0-6.872.654c-3.838,1.113-6.883,3.529-6.883,8.649,0,4,2.082,6.728,5.6,6.728a4.64,4.64,0,0,0,1.282-.165,7.439,7.439,0,0,0,5.12-4.169Z" transform="translate(5.344 8.018)" fill="#dbdbdb"/>
</svg>
