<svg id="apple-fill" xmlns="http://www.w3.org/2000/svg" width="88.146" height="88.146" viewBox="0 0 88.146 88.146">
  <path id="Caminho_314" data-name="Caminho 314" d="M0,0H88.146V88.145H0Z" fill="none"/>
  <path id="Caminho_315" data-name="Caminho 315" d="M36.142,24.253c-3.217,0-8.2-3.658-13.442-3.526A19.848,19.848,0,0,0,5.864,30.952C-1.32,43.424,4.013,61.847,11.02,71.983,14.458,76.92,18.513,82.473,23.89,82.3c5.157-.22,7.1-3.35,13.354-3.35,6.214,0,7.977,3.35,13.442,3.217,5.553-.088,9.079-5.024,12.473-10A44.293,44.293,0,0,0,68.8,60.569,17.979,17.979,0,0,1,57.87,44.085c-.088-10.313,8.418-15.249,8.815-15.47-4.848-7.1-12.3-7.889-14.9-8.065-6.787-.529-12.473,3.7-15.646,3.7ZM47.6,13.851a17.817,17.817,0,0,0,4.231-13c-4.1.176-9.035,2.733-11.988,6.17-2.644,3.041-4.936,7.933-4.319,12.6,4.539.353,9.211-2.336,12.076-5.774Z" transform="translate(6.55 2.272)" fill="#dbdbdb"/>
</svg>
