<svg id="firefox-fill" xmlns="http://www.w3.org/2000/svg" width="88.146" height="88.146" viewBox="0 0 88.146 88.146">
  <path id="Caminho_316" data-name="Caminho 316" d="M0,0H88.146V88.145H0Z" fill="none"/>
  <path id="Caminho_317" data-name="Caminho 317" d="M38.727,2a36.708,36.708,0,1,1-33.5,21.647c1.711-3.449,4.528-6.883,6.795-8.058a35.339,35.339,0,0,0-3.82,12.425,25.529,25.529,0,0,1,9.255-13.383C25.05,9.052,35.268,8.8,39.337,12.353c-7.551,2.6-15.778,13.031-13.967,25.254a19.629,19.629,0,0,0,1.8,5.81c-1.41-3.709-1.535-8.936.742-12.333,2.542-3.783,6.163-4.584,8.1-4.172-.764-.162-2.453,3.07-2.7,3.64a10.91,10.91,0,0,0-.922,4.591,12.469,12.469,0,0,0,3.783,8.741c7.059,6.872,18.448,4.169,23.55-3.68,3.5-5.4,3.926-14.573-.569-21.86A25.4,25.4,0,0,0,55.166,13.5,30.987,30.987,0,0,0,29.523,5.4,29.3,29.3,0,0,0,19.152,8.908C23.137,4.931,31.051,2,38.727,2Z" transform="translate(5.345 5.345)" fill="#dbdbdb"/>
</svg>
