<svg id="playstation-fill" xmlns="http://www.w3.org/2000/svg" width="88.146" height="88.146" viewBox="0 0 88.146 88.146">
  <path id="Caminho_318" data-name="Caminho 318" d="M0,0H88.146V88.145H0Z" fill="none"/>
  <path id="Caminho_319" data-name="Caminho 319" d="M80.86,51.786C79.281,53.78,75.417,55.2,75.417,55.2L46.649,65.548V57.916l21.17-7.555c2.406-.859,2.773-2.079.819-2.718a14.236,14.236,0,0,0-7.882.408l-14.1,4.973V45.109l.808-.275a48.216,48.216,0,0,1,9.81-2.082,41.829,41.829,0,0,1,18.261,2.178c6.207,1.965,6.9,4.859,5.329,6.853ZM49.385,38.8V19.286c0-2.292-.419-4.4-2.567-4.995-1.642-.529-2.663,1-2.663,3.287V66.436L30.992,62.253V4A158.423,158.423,0,0,1,49.124,8.977c11.147,3.831,14.926,8.6,14.926,19.344,0,10.471-6.457,14.441-14.662,10.475ZM6.844,57.122c-6.372-1.8-7.434-5.546-4.528-7.7a31.214,31.214,0,0,1,7.25-3.489l18.87-6.721v7.661L14.858,51.738c-2.4.859-2.769,2.079-.819,2.718a14.278,14.278,0,0,0,7.885-.4l6.512-2.365v6.85l-1.3.22a42.683,42.683,0,0,1-20.3-1.634Z" transform="translate(2.085 10.691)" fill="#dbdbdb"/>
</svg>
