<svg id="skype-fill" xmlns="http://www.w3.org/2000/svg" width="88.146" height="88.146" viewBox="0 0 88.146 88.146">
  <path id="Caminho_320" data-name="Caminho 320" d="M0,0H88.146V88.145H0Z" fill="none"/>
  <path id="Caminho_321" data-name="Caminho 321" d="M40.874,66.914A31.218,31.218,0,0,1,5.212,31.252a19.282,19.282,0,0,1,26.04-26.04A31.218,31.218,0,0,1,66.914,40.874a19.282,19.282,0,0,1-26.04,26.04ZM36.254,55h-.147c10.548,0,15.8-5.09,15.8-11.911,0-4.4-2.024-9.075-10.012-10.864l-7.283-1.616c-2.773-.632-5.957-1.469-5.957-4.1s2.277-4.455,6.332-4.455c8.19,0,7.445,5.612,11.5,5.612,2.115,0,4.014-1.256,4.014-3.416,0-5.032-8.069-8.815-14.9-8.815-7.423,0-15.326,3.155-15.326,11.547,0,4.033,1.447,8.337,9.4,10.331l9.876,2.464c3,.742,3.739,2.42,3.739,3.937,0,2.523-2.512,4.988-7.044,4.988-8.877,0-7.632-6.82-12.392-6.82a3.488,3.488,0,0,0-3.684,3.566c0,4.091,4.966,9.542,16.076,9.542Z" transform="translate(8.01 8.01)" fill="#dbdbdb"/>
</svg>
