<svg id="twitter-fill" xmlns="http://www.w3.org/2000/svg" width="88.146" height="88.146" viewBox="0 0 88.146 88.146">
  <path id="Caminho_322" data-name="Caminho 322" d="M0,0H88.146V88.145H0Z" fill="none"/>
  <path id="Caminho_323" data-name="Caminho 323" d="M76.64,10.915a30.792,30.792,0,0,1-8.822,2.417,15.411,15.411,0,0,0,6.758-8.5,30.7,30.7,0,0,1-9.755,3.728A15.359,15.359,0,0,0,38.65,22.568,43.61,43.61,0,0,1,6.991,6.519a15.382,15.382,0,0,0,4.753,20.509,15.308,15.308,0,0,1-6.956-1.921V25.3A15.369,15.369,0,0,0,17.106,40.358a15.462,15.462,0,0,1-6.938.265A15.37,15.37,0,0,0,24.517,51.293,30.829,30.829,0,0,1,1.779,57.654a43.448,43.448,0,0,0,23.542,6.9c28.254,0,43.705-23.406,43.705-43.705,0-.661-.018-1.33-.048-1.983a31.2,31.2,0,0,0,7.665-7.951Z" transform="translate(4.755 9.858)" fill="#dbdbdb"/>
</svg>
