<svg id="vimeo-fill" xmlns="http://www.w3.org/2000/svg" width="88.146" height="88.146" viewBox="0 0 88.146 88.146">
  <path id="Caminho_324" data-name="Caminho 324" d="M0,0H88.146V88.145H0Z" fill="none"/>
  <path id="Caminho_325" data-name="Caminho 325" d="M1.635,22.468C.6,20.951.71,20.951,2.84,19.082c4.525-3.974,8.793-8.322,13.721-11.8,4.462-3.129,10.379-5.149,14.423-.173C34.708,11.7,34.8,18.652,35.74,24.191c.944,5.744,1.847,11.621,3.86,17.115.558,1.546,1.627,4.47,3.555,4.716,2.49.342,5.024-4.025,6.181-5.656,3-4.334,7.07-10.17,6.556-15.741C55.386,18.7,49,19.816,45,21.23c.643-6.644,6.824-14.114,12.781-16.637,6.317-2.622,15.7-2.578,18.878,4.543,3.39,7.72.342,16.685-3.35,23.682A121.849,121.849,0,0,1,58.552,54.01c-4.888,5.832-10.673,12.23-17.96,15.018C32.266,72.2,27.334,66.016,24.5,58.854c-3.1-7.8-4.635-16.549-6.868-24.67-.94-3.43-2.057-7.334-4.286-10.166-2.909-3.654-6.214-.22-9.086,1.752a31.323,31.323,0,0,1-2.622-3.3Z" transform="translate(2.673 8.019)" fill="#dbdbdb"/>
</svg>
