<svg id="xbox-fill" xmlns="http://www.w3.org/2000/svg" width="88.146" height="88.146" viewBox="0 0 88.146 88.146">
  <path id="Caminho_326" data-name="Caminho 326" d="M0,0H88.146V88.145H0Z" fill="none"/>
  <path id="Caminho_327" data-name="Caminho 327" d="M14.553,66.372a36.726,36.726,0,0,0,48.359,0C68.656,60.521,49.7,39.719,38.727,31.43,27.764,39.719,8.795,60.521,14.553,66.372ZM48.71,22.281c7.654,9.064,22.907,31.567,18.6,39.519a36.7,36.7,0,0,0-2.78-49.185.938.938,0,0,0-.25-.129,2.52,2.52,0,0,0-.863-.14c-1.811,0-6.075,1.33-14.706,9.935ZM13.183,12.489a1.316,1.316,0,0,0-.264.129A36.7,36.7,0,0,0,10.146,61.8C5.856,53.822,21.1,31.338,28.752,22.284c-8.631-8.613-12.9-9.935-14.706-9.935a2.218,2.218,0,0,0-.859.143v-.007Zm25.544.378s-9.013-5.274-16.05-5.524A8.465,8.465,0,0,0,18.02,8.38,36.445,36.445,0,0,1,38.68,2h.048A36.643,36.643,0,0,1,59.434,8.38a8.31,8.31,0,0,0-4.65-1.036c-7.041.25-16.057,5.509-16.057,5.509Z" transform="translate(5.345 5.345)" fill="#dbdbdb"/>
</svg>
