<svg id="youtube-fill" xmlns="http://www.w3.org/2000/svg" width="88.146" height="88.146" viewBox="0 0 88.146 88.146">
  <path id="Caminho_328" data-name="Caminho 328" d="M0,0H88.146V88.145H0Z" fill="none"/>
  <path id="Caminho_329" data-name="Caminho 329" d="M73.776,13.174c1.678,6.545,1.678,20.207,1.678,20.207s0,13.663-1.678,20.207a10.324,10.324,0,0,1-7.118,7.426c-6.277,1.748-27.931,1.748-27.931,1.748s-21.643,0-27.931-1.748a10.323,10.323,0,0,1-7.118-7.426C2,47.044,2,33.382,2,33.382S2,19.719,3.678,13.174A10.324,10.324,0,0,1,10.8,5.748C17.084,4,38.727,4,38.727,4S60.382,4,66.658,5.748A10.323,10.323,0,0,1,73.776,13.174ZM31.382,46.236,53.418,33.382,31.382,20.527Z" transform="translate(5.345 10.691)" fill="#dbdbdb"/>
</svg>
