<svg xmlns="http://www.w3.org/2000/svg" width="147.585" height="105.068" viewBox="0 0 147.585 105.068">
  <g id="Grupo_12" data-name="Grupo 12" transform="translate(-370.752 -1700.021)">
    <path id="Caminho_293" data-name="Caminho 293" d="M280.438,198.392H276.17v-4.268h4.268Zm-3.414-.854h2.561v-2.561h-2.561Z" transform="translate(132.894 1505.897)" fill="#3f3d56"/>
    <rect id="Retângulo_39" data-name="Retângulo 39" width="22.621" height="0.854" transform="translate(412.579 1701.729)" fill="#3f3d56"/>
    <ellipse id="Elipse_38" data-name="Elipse 38" cx="0.889" cy="0.889" rx="0.889" ry="0.889" transform="translate(434.311 1701.267)" fill="#3f3d56"/>
    <rect id="Retângulo_40" data-name="Retângulo 40" width="22.194" height="0.854" transform="translate(387.397 1701.729)" fill="#3f3d56"/>
    <ellipse id="Elipse_39" data-name="Elipse 39" cx="0.889" cy="0.889" rx="0.889" ry="0.889" transform="translate(386.508 1701.267)" fill="#3f3d56"/>
    <g id="Grupo_11" data-name="Grupo 11" transform="translate(370.752 1702.135)">
      <ellipse id="Elipse_37" data-name="Elipse 37" cx="38.187" cy="38.187" rx="38.187" ry="38.187" transform="translate(2.26)" fill="#e42925"/>
      <path id="Caminho_294" data-name="Caminho 294" d="M369.673,287.578H365.4V283.31h4.268Zm-3.414-.854h2.561v-2.561h-2.561Z" transform="translate(-289.006 -247.358)" fill="#3f3d56"/>
      <rect id="Retângulo_41" data-name="Retângulo 41" width="0.854" height="22.194" transform="translate(78.106 39.894)" fill="#3f3d56"/>
      <ellipse id="Elipse_40" data-name="Elipse 40" cx="0.889" cy="0.889" rx="0.889" ry="0.889" transform="translate(77.644 61.199)" fill="#3f3d56"/>
      <rect id="Retângulo_42" data-name="Retângulo 42" width="0.854" height="22.194" transform="translate(78.106 14.286)" fill="#3f3d56"/>
      <ellipse id="Elipse_41" data-name="Elipse 41" cx="0.889" cy="0.889" rx="0.889" ry="0.889" transform="translate(77.644 13.397)" fill="#3f3d56"/>
      <path id="Caminho_295" data-name="Caminho 295" d="M190.673,287.578H186.4V283.31h4.268Zm-3.414-.854h2.561v-2.561h-2.561Z" transform="translate(-186.405 -247.358)" fill="#3f3d56"/>
      <rect id="Retângulo_43" data-name="Retângulo 43" width="0.854" height="22.194" transform="translate(1.707 39.894)" fill="#3f3d56"/>
      <ellipse id="Elipse_42" data-name="Elipse 42" cx="0.889" cy="0.889" rx="0.889" ry="0.889" transform="translate(1.245 61.199)" fill="#3f3d56"/>
      <rect id="Retângulo_44" data-name="Retângulo 44" width="0.854" height="23.048" transform="translate(1.707 13.432)" fill="#3f3d56"/>
      <ellipse id="Elipse_43" data-name="Elipse 43" cx="0.889" cy="0.889" rx="0.889" ry="0.889" transform="translate(1.245 13.397)" fill="#3f3d56"/>
      <path id="Caminho_296" data-name="Caminho 296" d="M280.438,377.392H276.17v-4.268h4.268Zm-3.414-.854h2.561v-2.561h-2.561Z" transform="translate(-237.857 -298.838)" fill="#3f3d56"/>
      <rect id="Retângulo_45" data-name="Retângulo 45" width="22.621" height="0.854" transform="translate(42.254 75.993)" fill="#3f3d56"/>
      <ellipse id="Elipse_44" data-name="Elipse 44" cx="0.889" cy="0.889" rx="0.889" ry="0.889" transform="translate(63.559 75.531)" fill="#3f3d56"/>
      <rect id="Retângulo_46" data-name="Retângulo 46" width="22.194" height="0.854" transform="translate(16.646 75.993)" fill="#3f3d56"/>
      <ellipse id="Elipse_45" data-name="Elipse 45" cx="0.889" cy="0.889" rx="0.889" ry="0.889" transform="translate(15.757 75.531)" fill="#3f3d56"/>
      <path id="Caminho_299" data-name="Caminho 299" d="M877.578,638.037l-.787.193c.355.051.71.1,1.066.144h13.127q1.477-.188,2.937-.464a45.77,45.77,0,0,0,16.475-6.526c3.081-2,6.018-4.467,7.613-7.775a13.684,13.684,0,0,0-1.683-14.093,14.109,14.109,0,0,0-4.084-3.482c-.234-.135-.471-.262-.713-.383a15.337,15.337,0,0,0-8.472-1.551,16.8,16.8,0,0,0-12.17,7.8c-2.918,4.671-3.478,10.387-3.965,15.873a6.248,6.248,0,0,0-7.118-3.956,7.425,7.425,0,0,0-5.521,6.3,9.164,9.164,0,0,0,3.148,7.792C877.478,637.951,877.527,637.995,877.578,638.037Z" transform="translate(-771.658 -535.419)" fill="#f5bb80"/>
      <path id="Caminho_300" data-name="Caminho 300" d="M931.816,643.619h.657a.478.478,0,0,0,.146-.2c.037-.088.072-.179.112-.267a80.168,80.168,0,0,1,23.47-31.533.375.375,0,0,0,.156-.344.506.506,0,0,0-.817-.318,81.128,81.128,0,0,0-23.816,32.195l-.007.019A.361.361,0,0,0,931.816,643.619Z" transform="translate(-815.774 -540.664)" fill="#fff"/>
      <path id="Caminho_301" data-name="Caminho 301" d="M833.138,465.792a2.646,2.646,0,0,1,2.643-2.643l.076,0,8.174-6.516-5.858-5.858a2.584,2.584,0,1,1,3.654-3.654l9.416,9.416-12.82,9.324a2.643,2.643,0,1,1-5.285-.071Z" transform="translate(-740.111 -414.371)" fill="#ffb8b8"/>
      <path id="Caminho_302" data-name="Caminho 302" d="M650.8,549.747l-2.764-1.032,2.665-11.154,4.08,1.523Z" transform="translate(-567.37 -450.031)" fill="#ffb8b8"/>
      <path id="Caminho_303" data-name="Caminho 303" d="M3.456,0H9.274V3.583H0V3.456A3.456,3.456,0,0,1,3.456,0Z" transform="translate(75.629 95.903) rotate(20.472)" fill="#2f2e41"/>
      <path id="Caminho_304" data-name="Caminho 304" d="M752.665,552.587h-2.951l-1.4-11.382h4.355Z" transform="translate(-644.363 -452.829)" fill="#ffb8b8"/>
      <path id="Caminho_305" data-name="Caminho 305" d="M733.3,586.6h5.818v3.583h-9.274v-.127A3.456,3.456,0,0,1,733.3,586.6Z" transform="translate(-630.184 -487.683)" fill="#2f2e41"/>
      <path id="Caminho_306" data-name="Caminho 306" d="M804.946,553.31a1.043,1.043,0,0,1-.317-.815c.526-8.693-4.055-24.493-5.472-29.128a.793.793,0,0,0-.549-.54.824.824,0,0,0-.77.173c-7.653,6.666-9.936,25.473-10.317,29.175a1.044,1.044,0,0,1-1.169.928l-3.819-.477a1.045,1.045,0,0,1-.891-1.258l10.015-46.3.006-.028.018-.022c2.422-2.906,9.438-1.775,9.736-1.725l.031.005.024.02c9.011,7.472,8.554,42.108,8.371,48.975a1.045,1.045,0,0,1-.945,1.011l-3.128.3c-.033,0-.067,0-.1,0A1.042,1.042,0,0,1,804.946,553.31Z" transform="translate(-700.554 -457.88)" fill="#2f2e41"/>
      <circle id="Elipse_50" data-name="Elipse 50" cx="5.702" cy="5.702" r="5.702" transform="translate(93.395 15.363)" fill="#ffb8b8"/>
      <path id="Caminho_307" data-name="Caminho 307" d="M837.86,435.041s-5.3-6.258-9.628-1.2h0a17.207,17.207,0,0,0-4.135,11.709l.163,5.5,9.989-1.564Z" transform="translate(-733.165 -403.236)" fill="#e42925"/>
      <path id="Caminho_308" data-name="Caminho 308" d="M842.6,373.588l-2.45-2.886a4.831,4.831,0,0,1-1.381-2.526,3.071,3.071,0,0,1,1.436-2.7,6.236,6.236,0,0,1,3.039-.908,8.74,8.74,0,0,1,5.685,1.31,5.248,5.248,0,0,1,2.293,5.132c-.312,1.53-1.462,3-1.015,4.493.489,1.638,2.5,2.14,4.133,2.628a11.533,11.533,0,0,1,6.815,4.914c1.441,2.481,1.434,5.9-.486,8.032a7.224,7.224,0,0,1-4.974,2.183,14.56,14.56,0,0,1-5.459-.929,12.811,12.811,0,0,1-4.5-2.4,6.024,6.024,0,0,1-2.154-4.482c.038-1.63.911-3.114,1.27-4.7a7.721,7.721,0,0,0-2.414-7.367" transform="translate(-744.429 -351.536)" fill="#2f2e41"/>
      <path id="Caminho_309" data-name="Caminho 309" d="M802.889,591.89H795.8a.874.874,0,0,1-.873-.873V582.65a.874.874,0,0,1,.873-.873h7.09a.874.874,0,0,1,.873.873v8.366A.874.874,0,0,1,802.889,591.89Z" transform="translate(-710.772 -518.343)" fill="#e42925"/>
      <path id="Caminho_310" data-name="Caminho 310" d="M818.823,474.431a2.581,2.581,0,0,1,.512-3.368l3.881-30.575a2.712,2.712,0,0,1,2.685-2.366h.036a2.707,2.707,0,0,1,2.628,3.188l-5.456,30.2h0a2.593,2.593,0,0,1-1.019,3.9,2.525,2.525,0,0,1-1.051.226A2.629,2.629,0,0,1,818.823,474.431Z" transform="translate(-728.807 -408.04)" fill="#ffb8b8"/>
      <path id="Caminho_311" data-name="Caminho 311" d="M788.187,750.464H728.519a.232.232,0,0,1,0-.464h59.667a.232.232,0,0,1,0,.464Z" transform="translate(-659.604 -647.509)" fill="#3f3d56"/>
    </g>
  </g>
</svg>
