<svg id="instagram-fill" xmlns="http://www.w3.org/2000/svg" width="47.238" height="47.238" viewBox="0 0 47.238 47.238">
  <path id="Caminho_378" data-name="Caminho 378" d="M0,0H47.238V47.238H0Z" fill="none"/>
  <path id="Caminho_379" data-name="Caminho 379" d="M21.683,2c5.348,0,6.015.02,8.113.118a14.5,14.5,0,0,1,4.779.915A9.6,9.6,0,0,1,38.062,5.3,9.66,9.66,0,0,1,40.332,8.79a14.54,14.54,0,0,1,.915,4.779c.093,2.1.118,2.765.118,8.113s-.02,6.015-.118,8.113a14.551,14.551,0,0,1-.915,4.779,10.049,10.049,0,0,1-5.757,5.757,14.54,14.54,0,0,1-4.779.915c-2.1.093-2.765.118-8.113.118s-6.015-.02-8.113-.118a14.551,14.551,0,0,1-4.779-.915,10.049,10.049,0,0,1-5.757-5.757A14.489,14.489,0,0,1,2.118,29.8C2.026,27.7,2,27.03,2,21.683s.02-6.015.118-8.113A14.489,14.489,0,0,1,3.033,8.79,9.605,9.605,0,0,1,5.3,5.3,9.639,9.639,0,0,1,8.79,3.033a14.489,14.489,0,0,1,4.779-.915C15.668,2.026,16.335,2,21.683,2Zm0,9.841a9.841,9.841,0,1,0,9.841,9.841A9.841,9.841,0,0,0,21.683,11.841Zm12.794-.492a2.46,2.46,0,1,0-2.46,2.46A2.46,2.46,0,0,0,34.476,11.349ZM21.683,15.778a5.9,5.9,0,1,1-5.9,5.9A5.9,5.9,0,0,1,21.683,15.778Z" transform="translate(1.937 1.937)" fill="#f5f5f5"/>
</svg>
