<svg id="mail-send-line" xmlns="http://www.w3.org/2000/svg" width="30.049" height="30.049" viewBox="0 0 30.049 30.049">
  <path id="Caminho_384" data-name="Caminho 384" d="M0,0H30.049V30.049H0Z" fill="none"/>
  <path id="Caminho_385" data-name="Caminho 385" d="M27.545,24.293A1.252,1.252,0,0,1,26.3,25.537H3.746A1.243,1.243,0,0,1,2.5,24.293V23.033H25.041V8.384L15.024,17.4,2.5,6.13V4.252A1.252,1.252,0,0,1,3.756,3H26.293a1.252,1.252,0,0,1,1.252,1.252ZM5.552,5.5l9.473,8.526L24.5,5.5ZM0,18.024H10.016v2.5H0Zm0-6.26H6.26v2.5H0Z" transform="translate(0 0.756)" fill="#fbfbfb"/>
</svg>
