<svg id="phone-fill" xmlns="http://www.w3.org/2000/svg" width="30.049" height="30.049" viewBox="0 0 30.049 30.049">
  <path id="Caminho_386" data-name="Caminho 386" d="M0,0H30.049V30.049H0Z" fill="none"/>
  <path id="Caminho_387" data-name="Caminho 387" d="M25.537,19.8v4.427a1.252,1.252,0,0,1-1.164,1.25c-.547.038-.994.058-1.34.058A20.032,20.032,0,0,1,3,5.5q0-.518.058-1.34A1.252,1.252,0,0,1,4.307,3H8.734a.626.626,0,0,1,.624.563c.029.288.055.517.08.691A17.4,17.4,0,0,0,10.95,9.264a.57.57,0,0,1-.184.71L8.064,11.9a16.335,16.335,0,0,0,8.569,8.569l1.928-2.7a.578.578,0,0,1,.717-.187A17.4,17.4,0,0,0,24.287,19.1c.174.025.4.053.689.08a.626.626,0,0,1,.562.624Z" transform="translate(0.756 0.756)" fill="#fbfbfb"/>
</svg>
