<svg xmlns="http://www.w3.org/2000/svg" width="137.318" height="79.102" viewBox="0 0 137.318 79.102">
  <g id="Grupo_10" data-name="Grupo 10" transform="translate(-814 -1421)">
    <path id="Caminho_149" data-name="Caminho 149" d="M320.749,378.043l-8.756,4.144,7.75-5.795a43.727,43.727,0,0,0-4.231-5.568l-37.975,9.439,34.3-13.085a43.727,43.727,0,0,0-4.981-3.8L248.992,372.7a43.366,43.366,0,0,0-9.5,27.063h87.1A43.343,43.343,0,0,0,320.749,378.043Z" transform="translate(589.763 1084.339)" fill="#f5bb80"/>
    <path id="Caminho_150" data-name="Caminho 150" d="M360.1,319.959a43.581,43.581,0,0,0-52.545,11.295C321.234,328.257,345.052,323.068,360.1,319.959Z" transform="translate(531.784 1125.07)" fill="#f5bb80"/>
    <path id="Caminho_151" data-name="Caminho 151" d="M511.848,302.387c-1.491,4.413-3.776,8.435-8.435,8.435a8.613,8.613,0,0,1-8.435-8.435c-.335-5.943,3.669-8.459,8.435-8.435C509.043,293.982,513.617,297.15,511.848,302.387Z" transform="translate(372.14 1143.483)" fill="#2f2e41"/>
    <rect id="Retângulo_9" data-name="Retângulo 9" width="13.797" height="20.106" transform="translate(868.595 1444.749)" fill="#2f2e41"/>
    <path id="Caminho_152" data-name="Caminho 152" d="M533.924,405.491s.441,6.325-.588,7.355,9.12,1.912,8.973.736-2.059-8.826-1.471-10.444S533.924,405.491,533.924,405.491Z" transform="translate(339.51 1050.802)" fill="#ffb8b8"/>
    <path id="Caminho_153" data-name="Caminho 153" d="M533.924,405.491s.441,6.325-.588,7.355,9.12,1.912,8.973.736-2.059-8.826-1.471-10.444S533.924,405.491,533.924,405.491Z" transform="translate(339.51 1050.802)" opacity="0.1"/>
    <path id="Caminho_154" data-name="Caminho 154" d="M389.441,479.736l-5.285,17.872-.212.72H375.05c3.539-10.954,12.288-27.108,12.288-27.108l1.366-.31Z" transform="translate(474.287 992.739)" fill="#e42925"/>
    <path id="Caminho_155" data-name="Caminho 155" d="M389.441,479.736l-5.285,17.872-.212.72H375.05c3.539-10.954,12.288-27.108,12.288-27.108l1.366-.31Z" transform="translate(474.287 992.739)" opacity="0.1"/>
    <circle id="Elipse_18" data-name="Elipse 18" cx="6.619" cy="6.619" r="6.619" transform="translate(868.581 1445.261)" fill="#ffb8b8"/>
    <path id="Caminho_156" data-name="Caminho 156" d="M531.787,452.058s-2.354,2.206-5,1.765-3.759-3.661-3.759-3.661l-2.566,1.9s-.735,5.3,2.648,5.884,8.237.736,9.267,0S531.787,452.058,531.787,452.058Z" transform="translate(350.474 1010.413)" fill="#3f3d56"/>
    <path id="Caminho_157" data-name="Caminho 157" d="M467.739,463.991l-.422,1.372-5.959,19.429H435.71a6.008,6.008,0,0,0,.12-.72c.332-2.766.136-9.743.136-10.223,0-.59,2.5-15.151,3.09-16.182a.957.957,0,0,1,.351-.293,18.006,18.006,0,0,1,3.838-1.225h0c.914-.222,1.868-.427,2.733-.6h0c.849-.17,1.61-.31,2.167-.4a8.862,8.862,0,0,1,.908-.126c.136,0,.236.161.3.409a11.275,11.275,0,0,1,.138,2.532,4.465,4.465,0,0,0,.661.619,8.392,8.392,0,0,0,1.846,1.1,10.946,10.946,0,0,0,1.751.6h0a12.8,12.8,0,0,0,1.918.333,5.918,5.918,0,0,0,1.585-.031h0a2.828,2.828,0,0,0,2.4-2c.047-.141.084-.276.117-.4,0,0,0,0,0-.006.1-.378.139-.643.243-.638h0c.268.025,3.65,2.924,5.847,4.828,1.043.9,1.818,1.583,1.865,1.625Z" transform="translate(422.613 1006.275)" fill="#e42925"/>
    <path id="Caminho_158" data-name="Caminho 158" d="M600.915,514l-5.959,19.429H592.54a1.59,1.59,0,0,0,.265-1.087c-.077-.542,1.6-6.066,3.217-11.206,1.469-4.671,2.887-9.02,2.887-9.02l1.4.661S600.557,513.253,600.915,514Z" transform="translate(289.014 957.633)" opacity="0.1"/>
    <path id="Caminho_159" data-name="Caminho 159" d="M610.521,526.114c-.29.073-.259.935-.276,1.825H598.83a1.683,1.683,0,0,0,.364-1.235c-.076-.52,1.05-5.881,2.186-11.058.893-4.094,1.794-8.075,2.106-9.46l.118-.516.135.064h0l2.949,1.4h0s4.559,8.68,3.09,10.74-1.472,2.059-.884,3.09S611.107,525.967,610.521,526.114Z" transform="translate(283.656 963.128)" fill="#e42925"/>
    <circle id="Elipse_19" data-name="Elipse 19" cx="3.33" cy="3.33" r="3.33" transform="translate(872.224 1432.552)" fill="#2f2e41"/>
    <path id="Caminho_160" data-name="Caminho 160" d="M521.231,252.329a3.33,3.33,0,0,1,3-3.313c-.109-.011-.22-.017-.333-.017a3.33,3.33,0,0,0,0,6.659c.112,0,.223-.006.333-.017A3.33,3.33,0,0,1,521.231,252.329Z" transform="translate(350.327 1181.777)" fill="#2f2e41"/>
    <path id="Caminho_161" data-name="Caminho 161" d="M489.972,331.689s-.07-.387-2.789.633-4.349,8.544-2.989,12.963a4.049,4.049,0,0,1-.625,3.963,6.546,6.546,0,0,0,2.321,10.167q.168.073.344.145l1.7,1.02a7.772,7.772,0,0,1-1.082-6.5,18.7,18.7,0,0,0,.337-9.571c-.124-.534-.266-1.084-.426-1.646-1.36-4.758-.7-4.209,4.06-8.967a30.246,30.246,0,0,0,5.1,3.059c2.379,1.02,4.418,2.039,2.719,5.438s-5.778,6.458-3.059,10.876,3.059,2.719,2.719,4.419h0l-.34,1.7L500,357.35l-1.359,2.719s4.418,0,5.778-3.4l.68.68s2.719-4.758-2.379-9.177c0,0-1.7-1.02.68-4.418s.552-10.706-2.507-12.066S489.972,331.689,489.972,331.689Z" transform="translate(383.133 1111.852)" fill="#2f2e41"/>
    <path id="Caminho_162" data-name="Caminho 162" d="M380.579,296.659l-5.663,9.809h1.324v1.324l6.436-11.133Z" transform="translate(494.621 1168.286)" fill="#3f3d56"/>
    <rect id="Retângulo_10" data-name="Retângulo 10" width="23.258" height="8.86" transform="translate(925.862 1484.684)" fill="#2f2e41"/>
    <rect id="Retângulo_11" data-name="Retângulo 11" width="17.183" height="1.481" transform="translate(929.024 1496.103)" fill="#2f2e41"/>
    <rect id="Retângulo_12" data-name="Retângulo 12" width="17.183" height="1.185" transform="translate(929.024 1498.769)" fill="#f2f2f2"/>
    <circle id="Elipse_20" data-name="Elipse 20" cx="0.554" cy="0.554" r="0.554" transform="translate(815.661 1422.108)" fill="#e42925"/>
    <circle id="Elipse_21" data-name="Elipse 21" cx="0.554" cy="0.554" r="0.554" transform="translate(817.323 1422.108)" fill="#e42925"/>
    <circle id="Elipse_22" data-name="Elipse 22" cx="0.554" cy="0.554" r="0.554" transform="translate(818.984 1422.108)" fill="#e42925"/>
    <path id="Caminho_163" data-name="Caminho 163" d="M273.818,262.1H136.5V183H273.818Zm-137.022-.3H273.522V183.3H136.8Z" transform="translate(677.5 1238)" fill="#2f2e41"/>
    <rect id="Retângulo_13" data-name="Retângulo 13" width="137.022" height="0.296" transform="translate(814.148 1423.975)" fill="#2f2e41"/>
    <rect id="Retângulo_14" data-name="Retângulo 14" width="4.43" transform="translate(815.661 1426.538)" fill="#2f2e41"/>
    <rect id="Retângulo_15" data-name="Retângulo 15" width="4.43" transform="translate(815.661 1427.645)" fill="#2f2e41"/>
    <rect id="Retângulo_16" data-name="Retângulo 16" width="4.43" height="0.554" transform="translate(815.661 1428.753)" fill="#2f2e41"/>
    <path id="Caminho_164" data-name="Caminho 164" d="M458.6,222.666H403.5V220h55.1Zm-54.809-.3h54.512V220.3H403.8Z" transform="translate(450.051 1206.481)" fill="#2f2e41"/>
    <path id="Caminho_165" data-name="Caminho 165" d="M757.093,224.685a.593.593,0,1,1,.593-.593A.593.593,0,0,1,757.093,224.685Zm0-.889a.3.3,0,1,0,.3.3A.3.3,0,0,0,757.093,223.8Z" transform="translate(149.342 1203.499)" fill="#2f2e41"/>
    <rect id="Retângulo_17" data-name="Retângulo 17" width="0.296" height="0.813" transform="translate(906.636 1428.021) rotate(-45.868)" fill="#2f2e41"/>
    <path id="Caminho_166" data-name="Caminho 166" d="M982.463,222.666H979.5V220h2.963Zm-2.666-.3h2.37V220.3H979.8Z" transform="translate(-40.625 1206.481)" fill="#2f2e41"/>
    <path id="Caminho_167" data-name="Caminho 167" d="M1007.463,222.666H1004.5V220h2.963Zm-2.666-.3h2.37V220.3h-2.37Z" transform="translate(-61.922 1206.481)" fill="#2f2e41"/>
    <path id="Caminho_168" data-name="Caminho 168" d="M1032.463,222.666H1029.5V220h2.963Zm-2.666-.3h2.37V220.3h-2.37Z" transform="translate(-83.218 1206.481)" fill="#2f2e41"/>
    <rect id="Retângulo_18" data-name="Retângulo 18" width="2.769" height="2.215" transform="translate(912.571 1492.99)" fill="#e42925"/>
    <rect id="Retângulo_19" data-name="Retângulo 19" width="2.769" height="2.215" transform="translate(915.894 1492.99)" fill="#f2f2f2"/>
    <rect id="Retângulo_20" data-name="Retângulo 20" width="2.769" height="2.215" transform="translate(919.77 1492.99)" fill="#f2f2f2"/>
    <path id="Caminho_169" data-name="Caminho 169" d="M287.526,326.475H186.5V269H287.526Zm-100.73-.3H287.23V269.3H186.8Z" transform="translate(634.907 1164.739)" fill="#2f2e41"/>
    <path id="Caminho_170" data-name="Caminho 170" d="M276.116,621.144v1.392l-2.312-1.411a.081.081,0,0,0-.122.07v3.05a.081.081,0,0,0,.122.07l2.312-1.411v1.392a.04.04,0,0,0,.04.04h.717a.04.04,0,0,0,.04-.04v-3.151a.04.04,0,0,0-.04-.04h-.717A.04.04,0,0,0,276.116,621.144Z" transform="translate(560.639 864.794)" fill="#3f3d56"/>
    <path id="Caminho_171" data-name="Caminho 171" d="M244.317,624.335h-.644a.081.081,0,0,1-.082-.081v-3.07a.081.081,0,0,1,.082-.081h.644a.081.081,0,0,1,.082.081v3.07A.081.081,0,0,1,244.317,624.335Zm1.778,0h-.644a.081.081,0,0,1-.082-.081v-3.07a.081.081,0,0,1,.082-.081h.644a.081.081,0,0,1,.082.081v3.07a.081.081,0,0,1-.082.081Z" transform="translate(586.273 864.794)" fill="#3f3d56"/>
    <path id="Caminho_172" data-name="Caminho 172" d="M215.5,621.193v3.064a.079.079,0,0,0,.118.073l2.429-1.532a.087.087,0,0,0,0-.144l-2.429-1.532a.078.078,0,0,0-.118.072Z" transform="translate(610.203 864.788)" fill="#e42925"/>
    <rect id="Retângulo_21" data-name="Retângulo 21" width="91.397" height="0.593" transform="translate(826.221 1483.808)" fill="#2f2e41"/>
    <rect id="Retângulo_22" data-name="Retângulo 22" width="15.924" height="0.593" transform="translate(826.221 1483.808)" fill="#e42925"/>
    <rect id="Retângulo_23" data-name="Retângulo 23" width="42.087" height="1.108" transform="translate(821.753 1493.544)" fill="#f2f2f2"/>
    <rect id="Retângulo_24" data-name="Retângulo 24" width="8.86" height="1.661" transform="translate(821.753 1496.866)" fill="#f2f2f2"/>
    <rect id="Retângulo_25" data-name="Retângulo 25" width="23.258" height="9.414" transform="translate(925.862 1436.506)" fill="#2f2e41"/>
    <rect id="Retângulo_26" data-name="Retângulo 26" width="17.183" height="1.481" transform="translate(929.024 1448.404)" fill="#2f2e41"/>
    <rect id="Retângulo_27" data-name="Retângulo 27" width="17.183" height="1.481" transform="translate(929.024 1451.071)" fill="#2f2e41"/>
    <rect id="Retângulo_28" data-name="Retângulo 28" width="17.183" height="1.481" transform="translate(929.024 1453.737)" fill="#2f2e41"/>
    <rect id="Retângulo_29" data-name="Retângulo 29" width="23.258" height="9.414" transform="translate(925.862 1460.318)" fill="#2f2e41"/>
    <rect id="Retângulo_30" data-name="Retângulo 30" width="17.183" height="1.481" transform="translate(929.024 1472.254)" fill="#2f2e41"/>
    <rect id="Retângulo_31" data-name="Retângulo 31" width="17.183" height="1.481" transform="translate(929.024 1474.92)" fill="#2f2e41"/>
    <rect id="Retângulo_32" data-name="Retângulo 32" width="17.183" height="1.481" transform="translate(929.024 1477.586)" fill="#2f2e41"/>
    <path id="Caminho_173" data-name="Caminho 173" d="M789.924,594.552l-.881-.665c-3.133-2.409-5.2-3.97-5.387-6.122a3.075,3.075,0,0,1,2.825-3.387,3.306,3.306,0,0,0,5.068-.444,3.074,3.074,0,0,1,3.37,2.845c.189,2.153-1.575,4.048-4.242,6.965Z" transform="translate(122.103 889.075)" fill="#e42925"/>
    <path id="Caminho_174" data-name="Caminho 174" d="M818.982,568.183l-.468-.961c-1.643-3.454-2.739-5.708-1.955-7.648a2.976,2.976,0,0,1,3.924-1.68,3.2,3.2,0,0,0,4.566,1.845,2.976,2.976,0,0,1,1.656,3.935c-.784,1.939-3.138,2.8-6.719,4.142Z" transform="translate(91.72 900.834)" fill="#e42925"/>
    <path id="Caminho_175" data-name="Caminho 175" d="M807.706,630.177l-.245-.5c-.861-1.81-1.435-2.991-1.025-4.008a1.56,1.56,0,0,1,2.057-.88,1.677,1.677,0,0,0,2.393.967,1.559,1.559,0,0,1,.868,2.062c-.411,1.016-1.644,1.467-3.521,2.171Z" transform="translate(109.277 861.233)" fill="#e42925"/>
  </g>
</svg>
